<svg width="54" height="54" viewBox="0 0 54 54" fill="none" xmlns="http://www.w3.org/2000/svg">
<path d="M27.8438 15.1875H26.1562V16.875H27.8438V15.1875Z" fill="white"/>
<path d="M24.4688 15.1875H22.7812V16.875H24.4688V15.1875Z" fill="white"/>
<path d="M31.2188 15.1875H29.5312V16.875H31.2188V15.1875Z" fill="white"/>
<path d="M10.9688 47.25H9.28125V48.9375H10.9688V47.25Z" fill="white"/>
<path d="M14.3438 47.25H12.6562V48.9375H14.3438V47.25Z" fill="white"/>
<path d="M17.7188 47.25H16.0312V48.9375H17.7188V47.25Z" fill="white"/>
<path d="M49.7812 1.6875H4.21875C3.54742 1.6875 2.90359 1.95418 2.42889 2.42889C1.95418 2.90359 1.6875 3.54742 1.6875 4.21875V48.0938C1.68884 49.2122 2.13374 50.2845 2.92462 51.0754C3.7155 51.8663 4.78778 52.3112 5.90625 52.3125H21.0938C22.2122 52.3112 23.2845 51.8663 24.0754 51.0754C24.8663 50.2845 25.3112 49.2122 25.3125 48.0938V47.25H35.4375V48.0938C35.4388 49.2122 35.8837 50.2845 36.6746 51.0754C37.4655 51.8663 38.5378 52.3112 39.6562 52.3125H48.0938C49.2122 52.3112 50.2845 51.8663 51.0754 51.0754C51.8663 50.2845 52.3112 49.2122 52.3125 48.0938V4.21875C52.3125 3.54742 52.0458 2.90359 51.5711 2.42889C51.0964 1.95418 50.4526 1.6875 49.7812 1.6875ZM3.375 4.21875C3.375 3.99497 3.46389 3.78036 3.62213 3.62213C3.78036 3.46389 3.99497 3.375 4.21875 3.375H49.7812C50.005 3.375 50.2196 3.46389 50.3779 3.62213C50.5361 3.78036 50.625 3.99497 50.625 4.21875V26.1512C50.3631 25.9609 50.0799 25.8018 49.7812 25.677V4.21875H4.21875V18.9186C4.18669 18.9321 4.15631 18.9481 4.12509 18.9624C4.04662 18.9987 3.40369 19.3843 3.375 19.4046V4.21875ZM42.1875 27H45.5625V27.8438H42.1875V27ZM5.90625 18.5625V5.90625H48.0938V25.3125H39.6562C38.6841 25.3137 37.7421 25.6501 36.9889 26.2649C36.2358 26.8796 35.7177 27.7353 35.5219 28.6875H25.3125V22.7812C25.3112 21.6628 24.8663 20.5905 24.0754 19.7996C23.2845 19.0087 22.2122 18.5638 21.0938 18.5625H5.90625ZM16.875 20.25V21.0938C16.875 21.3175 16.7861 21.5321 16.6279 21.6904C16.4696 21.8486 16.255 21.9375 16.0312 21.9375H10.9688C10.745 21.9375 10.5304 21.8486 10.3721 21.6904C10.2139 21.5321 10.125 21.3175 10.125 21.0938V20.25H16.875ZM25.3125 30.375H35.4375V35.4375H25.3125V30.375ZM23.625 48.0938C23.625 48.7651 23.3583 49.4089 22.8836 49.8836C22.4089 50.3583 21.7651 50.625 21.0938 50.625H5.90625C5.23492 50.625 4.59109 50.3583 4.11639 49.8836C3.64168 49.4089 3.375 48.7651 3.375 48.0938V22.7812C3.3747 22.2172 3.5632 21.6692 3.91046 21.2247C4.25772 20.7802 4.74377 20.4647 5.29116 20.3285C5.49151 20.2737 5.69856 20.2473 5.90625 20.25H8.4375V21.0938C8.4375 21.7651 8.70418 22.4089 9.17889 22.8836C9.65359 23.3583 10.2974 23.625 10.9688 23.625H16.0312C16.7026 23.625 17.3464 23.3583 17.8211 22.8836C18.2958 22.4089 18.5625 21.7651 18.5625 21.0938V20.25H21.0938C21.7651 20.25 22.4089 20.5167 22.8836 20.9914C23.3583 21.4661 23.625 22.1099 23.625 22.7812V48.0938ZM25.3125 45.5625V37.125H30.656L34.1719 45.5625H25.3125ZM32.4844 37.125H35.4375V44.2125L32.4844 37.125ZM50.625 48.0938C50.625 48.7651 50.3583 49.4089 49.8836 49.8836C49.4089 50.3583 48.7651 50.625 48.0938 50.625H39.6562C38.9849 50.625 38.3411 50.3583 37.8664 49.8836C37.3917 49.4089 37.125 48.7651 37.125 48.0938V29.5312C37.125 28.8599 37.3917 28.2161 37.8664 27.7414C38.3411 27.2667 38.9849 27 39.6562 27H40.5V27.8438C40.5 28.2913 40.6778 28.7205 40.9943 29.037C41.3107 29.3535 41.7399 29.5312 42.1875 29.5312H45.5625C46.0101 29.5312 46.4393 29.3535 46.7557 29.037C47.0722 28.7205 47.25 28.2913 47.25 27.8438V27H48.0938C48.2966 26.9981 48.4987 27.024 48.6945 27.0768L48.724 27.0827H48.7358C49.2782 27.2227 49.7584 27.5394 50.1005 27.9829C50.4426 28.4263 50.6272 28.9712 50.625 29.5312V48.0938Z" fill="white"/>
<path d="M44.7188 47.25H43.0312V48.9375H44.7188V47.25Z" fill="white"/>
<path d="M48.0938 47.25H46.4062V48.9375H48.0938V47.25Z" fill="white"/>
<path d="M41.3438 47.25H39.6562V48.9375H41.3438V47.25Z" fill="white"/>
</svg>
