<svg width="54" height="54" viewBox="0 0 54 54" fill="none" xmlns="http://www.w3.org/2000/svg">
<path d="M3.62135 47.0001L10.3739 53.7518C10.4237 53.8016 10.4836 53.8278 10.5401 53.8624C10.5764 53.8843 10.6059 53.9155 10.6456 53.9324C10.7494 53.9763 10.8599 53.999 10.9704 53.999C10.9721 53.999 10.9729 53.9982 10.9746 53.9982H49.7829C50.2495 53.9982 50.6267 53.621 50.6267 53.1545V24.4729C50.6267 24.3632 50.6047 24.2535 50.5617 24.1505C50.5187 24.0476 50.4571 23.954 50.3786 23.8763L43.8581 17.3575V4.22033V2.53283C43.8581 1.13642 42.7224 0.000732422 41.3269 0.000732422H12.6444C11.2489 0.000732422 10.1132 1.13642 10.1132 2.53283V4.22033V16.8774H4.21704C4.10735 16.8774 3.99767 16.8994 3.89473 16.9424C3.68801 17.0285 3.52432 17.1921 3.43826 17.3989C3.39607 17.501 3.37498 17.609 3.37413 17.717C3.37413 17.7186 3.37329 17.7195 3.37329 17.7212V46.4028C3.37329 46.5125 3.39523 46.6221 3.43826 46.7251C3.48129 46.8289 3.54288 46.9225 3.62135 47.0001ZM42.1706 5.06408V23.6291H14.3319V5.06408H42.1706ZM12.6444 23.6291H11.8007V5.06408H12.6444V23.6291ZM10.1284 24.8239V51.1202L5.06079 46.0535V19.758L10.1284 24.8239ZM48.9392 52.3107H11.8159V25.3166H48.9392V52.3107ZM47.7461 23.6291H43.8581V19.7428L47.7461 23.6291ZM12.6444 1.68823H41.3269C41.7926 1.68823 42.1706 2.06708 42.1706 2.53283V3.37658H18.5768H16.0456H13.5143H11.8015V2.53283C11.8007 2.06708 12.1795 1.68823 12.6444 1.68823ZM10.1132 22.4234L6.25385 18.5649H10.1132V22.4234Z" fill="#5683FF"/>
<path d="M14.3581 2.53296C14.3581 2.06721 13.9801 1.68921 13.5143 1.68921H13.5051C13.0393 1.68921 12.6664 2.06721 12.6664 2.53296C12.6664 2.99871 13.0478 3.37671 13.5143 3.37671C13.9793 3.37671 14.3581 2.99871 14.3581 2.53296Z" fill="#5683FF"/>
<path d="M16.8893 2.53296C16.8893 2.06721 16.5113 1.68921 16.0456 1.68921H16.0363C15.5705 1.68921 15.1976 2.06721 15.1976 2.53296C15.1976 2.99871 15.579 3.37671 16.0456 3.37671C16.5105 3.37671 16.8893 2.99871 16.8893 2.53296Z" fill="#5683FF"/>
<path d="M19.4206 2.53296C19.4206 2.06721 19.0426 1.68921 18.5768 1.68921H18.5675C18.1018 1.68921 17.7289 2.06721 17.7289 2.53296C17.7289 2.99871 18.1102 3.37671 18.5768 3.37671C19.0417 3.37671 19.4206 2.99871 19.4206 2.53296Z" fill="#5683FF"/>
<path d="M16.8632 8.43921H36.2745C36.7411 8.43921 37.1183 8.06121 37.1183 7.59546C37.1183 7.12971 36.7411 6.75171 36.2745 6.75171H16.8632C16.3966 6.75171 16.0194 7.12971 16.0194 7.59546C16.0194 8.06121 16.3974 8.43921 16.8632 8.43921Z" fill="#5683FF"/>
<path d="M33.7433 10.9705C33.7433 10.5047 33.3661 10.1267 32.8995 10.1267H18.5507C18.0841 10.1267 17.7069 10.5047 17.7069 10.9705C17.7069 11.4362 18.0841 11.8142 18.5507 11.8142H32.8995C33.3661 11.8142 33.7433 11.4362 33.7433 10.9705Z" fill="#5683FF"/>
<path d="M36.2745 10.1267C35.8079 10.1267 35.4307 10.5047 35.4307 10.9705C35.4307 11.4362 35.8079 11.8142 36.2745 11.8142H37.1182C37.5848 11.8142 37.962 11.4362 37.962 10.9705C37.962 10.5047 37.5848 10.1267 37.1182 10.1267H36.2745Z" fill="#5683FF"/>
<path d="M19.3944 17.717C19.3944 18.1828 19.7716 18.5608 20.2382 18.5608H38.8058C39.2723 18.5608 39.6495 18.1828 39.6495 17.717C39.6495 17.2513 39.2723 16.8733 38.8058 16.8733H20.2382C19.7724 16.8733 19.3944 17.2513 19.3944 17.717Z" fill="#5683FF"/>
<path d="M20.2382 13.4966C19.7716 13.4966 19.3944 13.8746 19.3944 14.3403C19.3944 14.8061 19.7716 15.1841 20.2382 15.1841H26.9814C27.448 15.1841 27.8252 14.8061 27.8252 14.3403C27.8252 13.8746 27.448 13.4966 26.9814 13.4966H20.2382Z" fill="#5683FF"/>
<path d="M34.587 20.2466H20.2382C19.7716 20.2466 19.3944 20.6246 19.3944 21.0903C19.3944 21.5561 19.7716 21.9341 20.2382 21.9341H34.587C35.0536 21.9341 35.4308 21.5561 35.4308 21.0903C35.4308 20.6246 35.0536 20.2466 34.587 20.2466Z" fill="#5683FF"/>
<path d="M30.3598 49.7771C36.4078 49.7771 41.3285 44.8563 41.3285 38.8083C41.3285 32.7603 36.4078 27.8396 30.3598 27.8396C24.3118 27.8396 19.3911 32.7603 19.3911 38.8083C19.3911 44.8563 24.3118 49.7771 30.3598 49.7771ZM30.3598 29.5271C35.4771 29.5271 39.641 33.691 39.641 38.8083C39.641 43.9257 35.4771 48.0896 30.3598 48.0896C25.2425 48.0896 21.0786 43.9257 21.0786 38.8083C21.0786 33.691 25.2425 29.5271 30.3598 29.5271Z" fill="#5683FF"/>
<path d="M26.1428 42.1842C26.3588 42.1842 26.5748 42.1015 26.7393 41.9369C27.0692 41.607 27.0692 41.0738 26.7393 40.7439L24.8046 38.8092L26.7393 36.8736C27.0692 36.5437 27.0692 36.0104 26.7393 35.6805C26.4094 35.3506 25.8761 35.3506 25.5462 35.6805L23.015 38.2126C22.6851 38.5425 22.6851 39.0758 23.015 39.4057L25.5462 41.9369C25.7116 42.1015 25.9276 42.1842 26.1428 42.1842Z" fill="#5683FF"/>
<path d="M33.9905 41.9369C34.155 42.1015 34.371 42.1842 34.587 42.1842C34.803 42.1842 35.019 42.1015 35.1836 41.9369L37.7148 39.4057C38.0447 39.0758 38.0447 38.5425 37.7148 38.2126L35.1836 35.6805C34.8537 35.3506 34.3204 35.3506 33.9905 35.6805C33.6606 36.0104 33.6606 36.5437 33.9905 36.8736L35.9252 38.8092L33.9905 40.7439C33.6614 41.0738 33.6614 41.6079 33.9905 41.9369Z" fill="#5683FF"/>
<path d="M28.3627 43.8135C28.4647 43.8548 28.5711 43.8734 28.6757 43.8734C29.0098 43.8734 29.3271 43.6734 29.4595 43.3427L32.8362 34.9018C33.0092 34.469 32.7982 33.9779 32.3654 33.8049C31.9368 33.632 31.4415 33.8421 31.2685 34.2758L27.8918 42.7166C27.7197 43.1495 27.9307 43.6405 28.3627 43.8135Z" fill="#5683FF"/>
</svg>
