<svg width="54" height="54" viewBox="0 0 54 54" fill="none" xmlns="http://www.w3.org/2000/svg">
<path d="M2.84766 0L7.5163 48.6738L27.0449 54L46.5739 48.6738L51.2426 0H2.84766ZM43.6089 46.1764L27.0449 50.6938L10.4814 46.1764L6.35779 3.18961H47.732L43.6089 46.1764Z" fill="#5683FF"/>
<path d="M13.3562 29.1024H32.1573L31.8466 33.947L27.1677 35.4742L22.2387 33.9515V31.3107H13.1877V40.4041L27.1652 44.7513L40.1894 40.9631L41.8859 20.4058L21.4295 20.1709L21.193 18.0558L41.956 18.0562V9.33032H11.1492L13.3562 29.1024ZM38.7668 12.5199V14.8666L17.6269 14.8658L18.5732 23.328L38.4252 23.5558L37.1913 38.513L27.1961 41.4204L16.3777 38.0557V34.5007H19.0491V36.3044L27.194 38.8208L34.8912 36.3085L35.5578 25.9128H16.2096L14.7145 12.5199H38.7668Z" fill="#5683FF"/>
</svg>
