<svg width="54" height="54" viewBox="0 0 54 54" fill="none" xmlns="http://www.w3.org/2000/svg">
<path d="M6.75339 16.0295H22.7863C23.2529 16.0295 23.6301 15.6524 23.6301 15.1858C23.6301 14.7192 23.2529 14.342 22.7863 14.342H6.75339C6.28679 14.342 5.90964 14.7192 5.90964 15.1858C5.90964 15.6524 6.28679 16.0295 6.75339 16.0295Z" fill="#5683FF"/>
<path d="M25.3176 17.717H8.44089C7.97429 17.717 7.59714 18.0942 7.59714 18.5608C7.59714 19.0274 7.97429 19.4045 8.44089 19.4045H25.3176C25.7842 19.4045 26.1613 19.0274 26.1613 18.5608C26.1613 18.0942 25.7842 17.717 25.3176 17.717Z" fill="#5683FF"/>
<path d="M20.2568 37.9805H8.44089C7.97429 37.9805 7.59714 38.3576 7.59714 38.8242C7.59714 39.2908 7.97429 39.668 8.44089 39.668H20.2568C20.7234 39.668 21.1005 39.2908 21.1005 38.8242C21.1005 38.3576 20.7234 37.9805 20.2568 37.9805Z" fill="#5683FF"/>
<path d="M28.6926 19.4045H30.3801C30.8467 19.4045 31.2238 19.0274 31.2238 18.5608C31.2238 18.0942 30.8467 17.717 30.3801 17.717H28.6926C28.226 17.717 27.8488 18.0942 27.8488 18.5608C27.8488 19.0274 28.226 19.4045 28.6926 19.4045Z" fill="#5683FF"/>
<path d="M11.8159 41.3455H6.75339C6.28679 41.3455 5.90964 41.7226 5.90964 42.1892C5.90964 42.6558 6.28679 43.033 6.75339 43.033H11.8159C12.2825 43.033 12.6596 42.6558 12.6596 42.1892C12.6596 41.7226 12.2825 41.3455 11.8159 41.3455Z" fill="#5683FF"/>
<path d="M29.5414 25.3108C29.5414 25.7774 29.9185 26.1545 30.3851 26.1545H49.7931C50.2597 26.1545 50.6368 25.7774 50.6368 25.3108C50.6368 24.8442 50.2597 24.467 49.7931 24.467H30.3851C29.9185 24.467 29.5414 24.8442 29.5414 25.3108Z" fill="#5683FF"/>
<path d="M43.0447 29.5295C43.5113 29.5295 43.8885 29.1524 43.8885 28.6858C43.8885 28.2192 43.5113 27.842 43.0447 27.842H32.0743C31.6077 27.842 31.2306 28.2192 31.2306 28.6858C31.2306 29.1524 31.6077 29.5295 32.0743 29.5295H43.0447Z" fill="#5683FF"/>
<path d="M44.7255 31.217H36.2922C35.8256 31.217 35.4485 31.5942 35.4485 32.0608C35.4485 32.5274 35.8256 32.9045 36.2922 32.9045H44.7255C45.1921 32.9045 45.5692 32.5274 45.5692 32.0608C45.5692 31.5942 45.1921 31.217 44.7255 31.217Z" fill="#5683FF"/>
<path d="M32.9172 31.217H30.3851C29.9185 31.217 29.5414 31.5942 29.5414 32.0608C29.5414 32.5274 29.9185 32.9045 30.3851 32.9045H32.9172C33.3838 32.9045 33.761 32.5274 33.761 32.0608C33.761 31.5942 33.383 31.217 32.9172 31.217Z" fill="#5683FF"/>
<path d="M53.1562 21.0921H43.848V11.8876C43.8505 11.8623 43.8632 11.8404 43.8632 11.8142C43.8632 11.7881 43.8505 11.7661 43.848 11.7408V10.1267C43.848 8.73115 42.7123 7.59546 41.3167 7.59546H2.53125C1.13569 7.59546 0 8.73115 0 10.1267V11.8142C0 11.8404 0.0126562 11.8623 0.0151875 11.8876V45.5591C0.0151875 46.0257 0.392344 46.4029 0.858938 46.4029H3.36656C3.36994 46.4029 3.37162 46.4046 3.375 46.4046C3.37838 46.4046 3.38006 46.4029 3.38344 46.4029H43.0194C43.486 46.4029 43.8632 46.0257 43.8632 45.5591V36.2863H53.1562C53.6228 36.2863 54 35.9092 54 35.4426V21.9358C54 21.4692 53.6228 21.0921 53.1562 21.0921ZM2.53125 9.28296H3.39188C2.92613 9.28296 2.55319 9.66012 2.55319 10.1267C2.55319 10.5933 2.93456 10.9705 3.40116 10.9705C3.86691 10.9705 4.24491 10.5933 4.24491 10.1267C4.24491 9.66012 3.86691 9.28296 3.40116 9.28296H5.92312C5.45738 9.28296 5.08444 9.66012 5.08444 10.1267C5.08444 10.5933 5.46581 10.9705 5.93241 10.9705C6.39816 10.9705 6.77616 10.5933 6.77616 10.1267C6.77616 9.66012 6.39816 9.28296 5.93241 9.28296H8.45438C7.98863 9.28296 7.61569 9.66012 7.61569 10.1267C7.61569 10.5933 7.99706 10.9705 8.46366 10.9705C8.92941 10.9705 9.30741 10.5933 9.30741 10.1267C9.30741 9.66012 8.92941 9.28296 8.46366 9.28296H41.3176C41.7833 9.28296 42.1613 9.66096 42.1613 10.1267V10.9705H8.46281H5.93156H3.40031H1.6875V10.1267C1.6875 9.66096 2.0655 9.28296 2.53125 9.28296ZM1.70269 12.658H2.53125V44.7154H1.70269V12.658ZM42.1748 44.7154H4.21875V12.658H42.1605V21.0921H27.0068C26.5402 21.0921 26.163 21.4692 26.163 21.9358V35.4426C26.163 35.9092 26.5402 36.2863 27.0068 36.2863H42.1757V44.7154H42.1748ZM52.3125 34.5988H27.8505V22.7796H52.3125V34.5988Z" fill="#5683FF"/>
<path d="M10.1537 22.7795C10.6194 22.7795 10.9974 22.4024 10.9974 21.9358C10.9974 21.4692 10.6194 21.092 10.1537 21.092H10.1444C9.67866 21.092 9.30573 21.4692 9.30573 21.9358C9.30573 22.4024 9.6871 22.7795 10.1537 22.7795Z" fill="#5683FF"/>
<path d="M10.1537 26.1528C10.6194 26.1528 10.9974 25.7757 10.9974 25.3091C10.9974 24.8425 10.6194 24.4653 10.1537 24.4653H10.1444C9.67866 24.4653 9.30573 24.8425 9.30573 25.3091C9.30573 25.7757 9.6871 26.1528 10.1537 26.1528Z" fill="#5683FF"/>
<path d="M10.1537 29.5261C10.6194 29.5261 10.9974 29.149 10.9974 28.6824C10.9974 28.2158 10.6194 27.8386 10.1537 27.8386H10.1444C9.67866 27.8386 9.30573 28.2158 9.30573 28.6824C9.30573 29.149 9.6871 29.5261 10.1537 29.5261Z" fill="#5683FF"/>
<path d="M10.1537 32.8994C10.6194 32.8994 10.9974 32.5223 10.9974 32.0557C10.9974 31.5891 10.6194 31.2119 10.1537 31.2119H10.1444C9.67866 31.2119 9.30573 31.5891 9.30573 32.0557C9.30573 32.5223 9.6871 32.8994 10.1537 32.8994Z" fill="#5683FF"/>
<path d="M13.5287 22.7795C13.9944 22.7795 14.3724 22.4024 14.3724 21.9358C14.3724 21.4692 13.9944 21.092 13.5287 21.092H13.5194C13.0537 21.092 12.6807 21.4692 12.6807 21.9358C12.6807 22.4024 13.0621 22.7795 13.5287 22.7795Z" fill="#5683FF"/>
<path d="M16.9037 22.7795C17.3694 22.7795 17.7474 22.4024 17.7474 21.9358C17.7474 21.4692 17.3694 21.092 16.9037 21.092H16.8944C16.4287 21.092 16.0557 21.4692 16.0557 21.9358C16.0557 22.4024 16.4371 22.7795 16.9037 22.7795Z" fill="#5683FF"/>
<path d="M20.2787 21.092H20.2694C19.8037 21.092 19.4307 21.4692 19.4307 21.9358C19.4307 22.4024 19.8121 22.7795 20.2787 22.7795C20.7444 22.7795 21.1224 22.4024 21.1224 21.9358C21.1224 21.4692 20.7444 21.092 20.2787 21.092Z" fill="#5683FF"/>
<path d="M23.6537 21.092H23.6444C23.1787 21.092 22.8057 21.4692 22.8057 21.9358C22.8057 22.4024 23.1871 22.7795 23.6537 22.7795C24.1194 22.7795 24.4974 22.4024 24.4974 21.9358C24.4974 21.4692 24.1194 21.092 23.6537 21.092Z" fill="#5683FF"/>
<path d="M10.1537 36.293C10.6194 36.293 10.9974 35.9158 10.9974 35.4492C10.9974 34.9826 10.6194 34.6055 10.1537 34.6055H10.1444C9.67866 34.6055 9.30573 34.9826 9.30573 35.4492C9.30573 35.9158 9.6871 36.293 10.1537 36.293Z" fill="#5683FF"/>
<path d="M13.5287 36.293C13.9944 36.293 14.3724 35.9158 14.3724 35.4492C14.3724 34.9826 13.9944 34.6055 13.5287 34.6055H13.5194C13.0537 34.6055 12.6807 34.9826 12.6807 35.4492C12.6807 35.9158 13.0621 36.293 13.5287 36.293Z" fill="#5683FF"/>
<path d="M16.9037 34.6055H16.8944C16.4287 34.6055 16.0557 34.9826 16.0557 35.4492C16.0557 35.9158 16.4371 36.293 16.9037 36.293C17.3694 36.293 17.7474 35.9158 17.7474 35.4492C17.7474 34.9826 17.3694 34.6055 16.9037 34.6055Z" fill="#5683FF"/>
<path d="M20.2787 34.6055H20.2694C19.8037 34.6055 19.4307 34.9826 19.4307 35.4492C19.4307 35.9158 19.8121 36.293 20.2787 36.293C20.7444 36.293 21.1224 35.9158 21.1224 35.4492C21.1224 34.9826 20.7444 34.6055 20.2787 34.6055Z" fill="#5683FF"/>
<path d="M23.6537 34.6055H23.6444C23.1787 34.6055 22.8057 34.9826 22.8057 35.4492C22.8057 35.9158 23.1871 36.293 23.6537 36.293C24.1194 36.293 24.4974 35.9158 24.4974 35.4492C24.4974 34.9826 24.1194 34.6055 23.6537 34.6055Z" fill="#5683FF"/>
<path d="M16.8767 29.5278H17.7187V30.3699C17.7187 30.8365 18.0959 31.2136 18.5625 31.2136C19.0291 31.2136 19.4062 30.8365 19.4062 30.3699V29.5278H20.25C20.7166 29.5278 21.0937 29.1507 21.0937 28.6841C21.0937 28.2175 20.7166 27.8403 20.25 27.8403H19.4062V26.9966C19.4062 26.53 19.0291 26.1528 18.5625 26.1528C18.0959 26.1528 17.7187 26.53 17.7187 26.9966V27.8403H16.8767C16.4101 27.8403 16.0329 28.2175 16.0329 28.6841C16.0329 29.1507 16.4101 29.5278 16.8767 29.5278Z" fill="#5683FF"/>
</svg>
