<svg width="54" height="54" viewBox="0 0 54 54" fill="none" xmlns="http://www.w3.org/2000/svg">
<g clip-path="url(#clip0)">
<path d="M13.079 34.5972C14.7074 34.5972 16.0321 33.2725 16.0321 31.644C16.0321 30.0156 14.7074 28.6909 13.079 28.6909C11.4505 28.6909 10.1259 30.0156 10.1259 31.644C10.1259 33.2725 11.4505 34.5972 13.079 34.5972ZM13.079 30.3784C13.7768 30.3784 14.3446 30.9463 14.3446 31.644C14.3446 32.3418 13.7768 32.9097 13.079 32.9097C12.3812 32.9097 11.8134 32.3418 11.8134 31.644C11.8134 30.9463 12.3812 30.3784 13.079 30.3784Z" fill="#5683FF"/>
<path d="M48.0938 53.1562V49.7812C48.0938 49.3147 47.7166 48.9375 47.25 48.9375C46.7842 48.9375 46.4062 48.5595 46.4062 48.0938C46.4062 47.6272 46.0291 47.25 45.5625 47.25H8.4375C7.97091 47.25 7.59375 47.6272 7.59375 48.0938C7.59375 48.5595 7.21575 48.9375 6.75 48.9375C6.28341 48.9375 5.90625 49.3147 5.90625 49.7812V53.1562C5.90625 53.6228 6.28341 54 6.75 54C7.21659 54 7.59375 53.6228 7.59375 53.1562V50.4689C8.30925 50.2141 8.87119 49.6522 9.12516 48.9375H44.874C45.1288 49.653 45.6908 50.2149 46.4054 50.4689V53.1562C46.4054 53.6228 46.7826 54 47.2492 54C47.7158 54 48.0938 53.6228 48.0938 53.1562Z" fill="#5683FF"/>
<path d="M0.84375 44.7188H1.6875V53.1562C1.6875 53.6228 2.06466 54 2.53125 54C2.99784 54 3.375 53.6228 3.375 53.1562V44.7188H50.625V53.1562C50.625 53.6228 51.0022 54 51.4688 54C51.9353 54 52.3125 53.6228 52.3125 53.1562V44.7188H53.1562C53.6228 44.7188 54 44.3416 54 43.875V40.5C54 40.0334 53.6228 39.6562 53.1562 39.6562H52.3125V34.5938C52.3125 31.3377 49.6623 28.6875 46.4062 28.6875C46.4062 28.6875 46.4062 28.6875 46.4054 28.6875L43.875 28.6892V27.3181C46.8956 25.5648 48.9367 22.3037 48.9375 18.5667C48.9375 18.5659 48.9375 18.5659 48.9375 18.5659V10.9688C48.9375 8.46534 47.1091 6.3855 44.7188 5.98219V3.375C44.7188 2.90841 44.3416 2.53125 43.875 2.53125H37.125C37.1208 2.53125 37.1174 2.53378 37.114 2.53378C32.4667 2.53969 28.6875 6.32138 28.6875 10.9688V18.5642C28.6875 22.302 30.7285 25.5648 33.75 27.3181V28.6892L31.2196 28.6875C31.2188 28.6875 31.2188 28.6875 31.2188 28.6875C27.9627 28.6875 25.3125 31.3377 25.3125 34.5938V36.2846H24.4696V24.4721C24.4696 23.0766 23.3339 21.9409 21.9383 21.9409H4.21959C2.82403 21.9409 1.68834 23.0766 1.68834 24.4721V38.8142C1.68834 39.1112 1.74909 39.3922 1.84359 39.6562H0.84375C0.377156 39.6562 0 40.0334 0 40.5V43.875C0 44.3416 0.377156 44.7188 0.84375 44.7188ZM37.125 4.22044C37.1284 4.22044 37.1301 4.21875 37.1334 4.21875H43.0312V6.75C43.0312 7.21659 43.4084 7.59375 43.875 7.59375C45.7363 7.59375 47.25 9.10744 47.25 10.9688V13.1507L46.159 12.0597C46.1472 12.0479 46.1329 12.0445 46.1211 12.0352C46.0763 11.9948 46.0274 11.9677 45.9768 11.9391C45.9304 11.9129 45.8882 11.8842 45.8392 11.8665C45.7886 11.8488 45.738 11.8454 45.6857 11.837C45.6308 11.8285 45.5777 11.8184 45.5228 11.8201C45.4714 11.8226 45.4241 11.8378 45.3735 11.8488C45.317 11.8631 45.2604 11.8741 45.2064 11.9003C45.1921 11.907 45.1769 11.9062 45.1626 11.9137C45.133 11.9298 42.1765 13.5 38.8125 13.5C35.4645 13.5 32.4911 11.9289 32.4616 11.9129C32.4473 11.9053 32.4329 11.9062 32.4186 11.8994C32.3654 11.8749 32.3097 11.8623 32.2523 11.8488C32.2009 11.8361 32.1519 11.8209 32.0988 11.8193C32.0465 11.8167 31.9975 11.8277 31.9452 11.8353C31.8904 11.8429 31.8355 11.8479 31.7832 11.8665C31.736 11.8834 31.6946 11.9121 31.6499 11.9374C31.5984 11.9669 31.5487 11.9939 31.5039 12.0344C31.4921 12.0445 31.4778 12.0479 31.466 12.0589L30.375 13.1507V10.9688C30.375 7.24781 33.4032 4.22044 37.125 4.22044ZM30.375 18.5642V15.5368L32.2346 13.6772C33.3391 14.1801 35.91 15.1875 38.8125 15.1875C41.715 15.1875 44.2859 14.1801 45.3904 13.6772L47.25 15.5368V18.5642C47.25 23.2158 43.4649 27 38.8125 27C34.1601 27 30.375 23.2158 30.375 18.5642ZM38.8125 28.6875C39.9971 28.6875 41.1303 28.4723 42.1875 28.0969V29.1836L41.1159 30.2543L39.0791 29.5751C39.0488 29.565 39.0184 29.5701 38.9872 29.5633C38.9298 29.5507 38.8732 29.5422 38.8125 29.5422C38.7526 29.5422 38.6961 29.5515 38.6378 29.5633C38.6075 29.5701 38.5771 29.5642 38.5459 29.5751L36.5091 30.2543L35.4375 29.1836V28.0969C36.4947 28.4723 37.6279 28.6875 38.8125 28.6875ZM27 34.5938C27 32.2675 28.8925 30.375 31.2188 30.375L34.2444 30.3767L35.6847 31.8153C35.6982 31.8288 35.7159 31.833 35.7303 31.8448C35.7851 31.8946 35.8459 31.9326 35.9125 31.9663C35.9395 31.9798 35.9648 31.9958 35.9927 32.0068C36.0847 32.0406 36.1808 32.0625 36.2812 32.0625C36.369 32.0625 36.4593 32.0482 36.5479 32.0186L38.8125 31.2643L41.0771 32.0195C41.1657 32.0482 41.256 32.0625 41.3438 32.0625C41.4442 32.0625 41.5403 32.0406 41.6332 32.0068C41.6618 31.9958 41.6863 31.9798 41.7133 31.9663C41.78 31.9334 41.8399 31.8946 41.8956 31.8448C41.9099 31.8322 41.9276 31.8279 41.9411 31.8153L43.3814 30.3767L46.4062 30.375C48.7325 30.375 50.625 32.2675 50.625 34.5938V39.6562H32.7518C32.8455 39.3922 32.9062 39.1112 32.9062 38.8159V37.1284C32.9062 36.6618 32.5291 36.2846 32.0625 36.2846H27V34.5938ZM31.2188 37.9721V38.8159C31.2188 39.2757 30.8492 39.647 30.3919 39.6562H24.3152C24.408 39.393 24.4688 39.1146 24.4688 38.8209C24.4688 38.8184 24.4704 38.8167 24.4704 38.8142V37.9721H31.2188ZM4.21959 23.6284H21.9383C22.4041 23.6284 22.7821 24.0064 22.7821 24.4721V37.1242C22.7821 37.1258 22.7812 37.1267 22.7812 37.1284C22.7812 37.1301 22.7821 37.1309 22.7821 37.1326V38.8117C22.7821 38.8133 22.7812 38.8142 22.7812 38.8159C22.7812 39.2757 22.4117 39.647 21.9544 39.6562H4.21116C3.74963 39.6512 3.37584 39.2774 3.37584 38.8142V24.4721C3.37584 24.0064 3.75384 23.6284 4.21959 23.6284ZM1.6875 41.3438H3.36656C3.36994 41.3438 3.37162 41.3454 3.375 41.3454H21.0845C21.0878 41.3454 21.0904 41.3471 21.0929 41.3471H30.375C30.3868 41.3471 30.3961 41.3438 30.4079 41.3438H51.4519C51.4578 41.3438 51.4628 41.3471 51.4688 41.3471C51.4747 41.3471 51.4797 41.3438 51.4856 41.3438H52.3125V43.0312H1.6875V41.3438Z" fill="#5683FF"/>
<path d="M38.8378 38.8125C39.3036 38.8125 39.6816 38.4353 39.6816 37.9688C39.6816 37.5022 39.3036 37.125 38.8378 37.125H38.8294C38.3636 37.125 37.9907 37.5022 37.9907 37.9688C37.9907 38.4353 38.3721 38.8125 38.8378 38.8125Z" fill="#5683FF"/>
<path d="M38.8378 35.4375C39.3036 35.4375 39.6816 35.0603 39.6816 34.5938C39.6816 34.1272 39.3036 33.75 38.8378 33.75H38.8294C38.3636 33.75 37.9907 34.1272 37.9907 34.5938C37.9907 35.0603 38.3721 35.4375 38.8378 35.4375Z" fill="#5683FF"/>
<path d="M12.2622 19.3615L12.9035 20.0028C13.0612 20.1614 13.2764 20.25 13.5 20.25C13.7244 20.25 13.9388 20.1614 14.0965 20.0028L14.8686 19.2299C19.4704 18.3735 22.7812 14.4113 22.7812 9.70312C22.7812 4.35291 18.4283 0 13.0781 0C7.72791 0 3.375 4.35291 3.375 9.70312C3.375 14.7639 7.25288 18.9447 12.2622 19.3615ZM13.0781 1.6875C17.4977 1.6875 21.0938 5.28356 21.0938 9.70312C21.0938 13.6687 18.2495 16.9948 14.3302 17.6099C14.1539 17.6378 13.9911 17.7213 13.8645 17.847L13.5 18.2132L13.2317 17.9449C13.0832 17.7964 12.8857 17.7095 12.6773 17.6985C8.40712 17.4867 5.0625 13.975 5.0625 9.70312C5.0625 5.28356 8.65856 1.6875 13.0781 1.6875Z" fill="#5683FF"/>
<path d="M15.8566 12.399C16.0211 12.5635 16.2371 12.6462 16.4531 12.6462C16.6691 12.6462 16.8851 12.5635 17.0497 12.399L19.1489 10.2998C19.1523 10.2964 19.1557 10.2964 19.159 10.293C19.3244 10.1285 19.4063 9.91163 19.4063 9.69479C19.4063 9.47795 19.3244 9.26195 19.159 9.09657C19.1557 9.0932 19.1523 9.0932 19.1489 9.08982L17.0497 6.98888C16.7198 6.65898 16.1865 6.65898 15.8566 6.98888C15.5267 7.31795 15.5267 7.85204 15.8566 8.18195L17.3678 9.69479L15.8566 11.2059C15.5267 11.5359 15.5267 12.0699 15.8566 12.399Z" fill="#5683FF"/>
<path d="M9.10659 12.399C9.27113 12.5635 9.48712 12.6462 9.70312 12.6462C9.91913 12.6462 10.1351 12.5635 10.2997 12.399C10.6296 12.0691 10.6296 11.5359 10.2997 11.2059L8.7885 9.69479L10.2997 8.18195C10.6296 7.85204 10.6296 7.31795 10.2997 6.98888C9.96975 6.65898 9.4365 6.65898 9.10659 6.98888L7.00734 9.08982C7.00397 9.0932 7.00059 9.0932 6.99722 9.09657C6.83184 9.26279 6.75 9.47795 6.75 9.69479C6.75 9.91163 6.83184 10.1285 6.99722 10.293C7.00059 10.2964 7.00397 10.2964 7.00734 10.2998L9.10659 12.399Z" fill="#5683FF"/>
<path d="M11.5467 14.2906C11.6353 14.3202 11.7256 14.3345 11.8134 14.3345C12.1669 14.3345 12.4968 14.1109 12.6132 13.7574L15.1445 6.16026C15.2921 5.71814 15.0534 5.23973 14.6112 5.09292C14.1657 4.94358 13.6899 5.18405 13.5439 5.62617L11.0126 13.2233C10.8658 13.6654 11.1046 14.1438 11.5467 14.2906Z" fill="#5683FF"/>
</g>
<defs>
<clipPath id="clip0">
<rect width="54" height="54" fill="white"/>
</clipPath>
</defs>
</svg>
