<svg width="54" height="54" viewBox="0 0 54 54" fill="none" xmlns="http://www.w3.org/2000/svg">
<g clip-path="url(#clip0)">
<path d="M52.8748 11.2501H51.7502V7.87549C51.7502 7.25407 51.2464 6.75025 50.625 6.75025H25.6805L24.8011 5.09671C24.6058 4.72947 24.2235 4.49976 23.8076 4.49976H1.12525C0.503719 4.49986 0 5.0039 0 5.62511V48.3748C0 48.9962 0.503719 49.5 1.12525 49.5H52.8749C53.4963 49.5 54.0001 48.9963 54.0001 48.3748V12.3753C54 11.7538 53.4964 11.2501 52.8748 11.2501ZM49.4999 9.00074V11.2501H28.0739L26.8776 9.00074H49.4999ZM51.7496 47.2495H2.25039V6.75035H23.1315L24.01 8.40199C24.0129 8.40748 24.0157 8.41307 24.0187 8.41845L26.4043 12.9037C26.5996 13.271 26.9818 13.5007 27.3977 13.5007H51.7495V47.2495H51.7496Z" fill="#5683FF"/>
<path d="M17.2235 11.251H17.2502C17.8715 11.251 18.3754 10.7473 18.3754 10.1257C18.3754 9.50452 17.8716 9.00049 17.2502 9.00049H17.2235C16.6021 9.00049 16.0983 9.50452 16.0983 10.1257C16.0983 10.7474 16.602 11.251 17.2235 11.251Z" fill="#5683FF"/>
<path d="M15.1166 10.1252C15.1166 9.50404 14.613 9 13.9913 9H5.62512C5.0037 9 4.49988 9.50404 4.49988 10.1252C4.49988 10.7467 5.0036 11.2505 5.62512 11.2505H13.9913C14.6127 11.2505 15.1166 10.7469 15.1166 10.1252Z" fill="#5683FF"/>
<path d="M18.2791 33.9516V33.9513C18.6167 33.9513 18.8078 33.5916 18.8078 33.1754C18.8078 32.8152 18.6502 32.4216 18.2791 32.4216H14.2741C13.8917 32.4216 13.5089 32.6015 13.5089 32.9612V40.105C13.5089 40.4654 13.8914 40.6452 14.2741 40.6452H18.2791C18.6503 40.6452 18.8078 40.2516 18.8078 39.8915C18.8078 39.4753 18.6166 39.1155 18.2791 39.1155H15.264V37.2031H16.9515C17.3229 37.2031 17.4801 36.8427 17.4801 36.5394C17.4801 36.1791 17.2888 35.8531 16.9515 35.8531H15.264V33.9517H18.2791V33.9516Z" fill="#5683FF"/>
<path d="M8.06641 34.5138C8.06641 34.165 8.39252 33.8385 9.19113 33.8385C10.1137 33.8385 10.3274 34.2662 10.7326 34.2662C11.2273 34.2662 11.4298 33.6477 11.4298 33.3439C11.4298 32.4663 9.78745 32.3535 9.19092 32.3535C7.78481 32.3535 6.31099 32.995 6.31099 34.6826C6.31099 37.3153 9.8771 37.0789 9.8771 38.44C9.8771 38.9802 9.30324 39.1824 8.78581 39.1824C7.73956 39.1824 7.40206 38.3503 6.87324 38.3503C6.44588 38.3503 6.10828 38.9122 6.10828 39.2949C6.10828 40.0373 7.34574 40.7575 8.81935 40.7575C10.4508 40.7575 11.6321 39.8799 11.6321 38.2599C11.6325 35.4253 8.06641 35.6391 8.06641 34.5138Z" fill="#5683FF"/>
<path d="M22.4686 20.7688C22.4686 20.3975 22.3113 19.9924 21.9401 19.9924H17.0802C16.7088 19.9924 16.5513 20.3977 16.5513 20.7688C16.5513 21.1963 16.7426 21.5677 17.0802 21.5677H18.6327V27.6763C18.6327 28.0361 19.0713 28.2161 19.5103 28.2161C19.9489 28.2161 20.3878 28.0361 20.3878 27.6763V21.5677H21.9403C22.2773 21.5677 22.4686 21.1963 22.4686 20.7688Z" fill="#5683FF"/>
<path d="M42.5025 33.9967H44.0551V40.1049C44.0551 40.4653 44.4938 40.6451 44.9327 40.6451C45.3714 40.6451 45.8103 40.4653 45.8103 40.1049V33.9967H47.3628C47.7001 33.9967 47.8914 33.6255 47.8914 33.1978C47.8913 32.8265 47.7339 32.4216 47.3627 32.4216H42.5027C42.1314 32.4216 41.9741 32.8267 41.9741 33.1978C41.9739 33.6255 42.1652 33.9967 42.5025 33.9967Z" fill="#5683FF"/>
<path d="M35.4171 32.9611V40.1049C35.4171 40.4653 35.7995 40.6451 36.1822 40.6451H40.187C40.5583 40.6451 40.7158 40.2515 40.7158 39.8914C40.7158 39.4752 40.5245 39.1154 40.187 39.1154H37.1722V37.203H38.8596C39.2309 37.203 39.3882 36.8426 39.3882 36.5393C39.3882 36.179 39.1971 35.853 38.8596 35.853H37.1722V33.9516H40.187V33.9513C40.5246 33.9513 40.7158 33.5916 40.7158 33.1754C40.7158 32.8152 40.5582 32.4216 40.187 32.4216H36.1822C35.7998 32.4215 35.4171 32.6013 35.4171 32.9611Z" fill="#5683FF"/>
<path d="M32.4988 28.2161C32.9376 28.2161 33.3764 28.0361 33.3764 27.6763V25.2461H34.49C36.0426 25.2461 37.2577 24.5262 37.2577 22.636V22.5802C37.2577 20.6902 36.0878 19.9924 34.6028 19.9924H32.2741C31.8802 19.9924 31.6216 20.2401 31.6216 20.5211V27.6763C31.6216 28.0361 32.06 28.2161 32.4988 28.2161ZM33.3764 21.5221H34.49C35.1201 21.5221 35.5027 21.8825 35.5027 22.6474V22.7712C35.5027 23.5365 35.1202 23.8962 34.49 23.8962H33.3764V21.5221Z" fill="#5683FF"/>
<path d="M23.9625 22.6473V25.6286C23.9625 27.5637 25.1661 28.2837 26.7187 28.2837C28.2713 28.2837 29.4862 27.5638 29.4862 25.6286V22.6473C29.4862 20.7124 28.2713 19.9922 26.7187 19.9922C25.1661 19.9922 23.9625 20.7123 23.9625 22.6473ZM27.7313 22.6473V25.6286C27.7313 26.405 27.3488 26.7534 26.7187 26.7534C26.0889 26.7534 25.7175 26.405 25.7175 25.6286V22.6473C25.7175 21.8711 26.0889 21.522 26.7187 21.522C27.3487 21.5221 27.7313 21.8711 27.7313 22.6473Z" fill="#5683FF"/>
<path d="M27.837 32.95V40.1048C27.837 40.4652 28.2758 40.645 28.7145 40.645C29.1534 40.645 29.5918 40.4652 29.5918 40.1048V37.3939H30.3345L31.8756 40.3863C31.9995 40.6225 32.2133 40.7128 32.4381 40.7128C32.9556 40.7128 33.5406 40.2399 33.5406 39.8011C33.5406 39.7449 33.5293 39.6662 33.4844 39.599L32.1117 37.1124C32.8992 36.809 33.4731 36.089 33.4731 34.8288C33.4731 32.995 32.2468 32.4214 30.7057 32.4214H28.3768C28.051 32.4215 27.837 32.6691 27.837 32.95ZM29.5919 33.9513H30.7059C31.3357 33.9513 31.7182 34.21 31.7182 34.9977C31.7182 35.7851 31.3357 36.0438 30.7059 36.0438H29.5919V33.9513Z" fill="#5683FF"/>
<path d="M23.1818 33.9513C24.1378 33.9513 24.1716 34.6712 24.1828 34.9638C24.2052 35.3691 24.5878 35.4925 25.0603 35.4925C25.6565 35.4925 25.9379 35.335 25.9379 34.6603C25.9379 33.2312 24.7228 32.4214 23.1143 32.4214C21.6403 32.4214 20.4142 33.1413 20.4142 35.0765V38.0578C20.4142 39.9927 21.6403 40.7129 23.1143 40.7129C24.7228 40.7129 25.9379 39.8578 25.9379 38.3615C25.9379 37.6866 25.6566 37.5288 25.0492 37.5288C24.5994 37.5288 24.2165 37.6413 24.1829 38.0581C24.1493 38.4966 24.093 39.1826 23.1929 39.1826C22.5405 39.1826 22.1693 38.8228 22.1693 38.0581V35.0767C22.1692 34.3116 22.5405 33.9513 23.1818 33.9513Z" fill="#5683FF"/>
</g>
<defs>
<clipPath id="clip0">
<rect width="54" height="54" fill="white"/>
</clipPath>
</defs>
</svg>
