<svg width="54" height="54" viewBox="0 0 54 54" fill="none" xmlns="http://www.w3.org/2000/svg">
<g clip-path="url(#clip0)">
<path d="M5.77524 3.03711C4.49561 3.03711 3.45493 4.07779 3.45493 5.35742C3.45493 6.63664 4.49561 7.67773 5.77524 7.67773C7.05446 7.67773 8.09555 6.63664 8.09555 5.35742C8.09555 4.07779 7.05446 3.03711 5.77524 3.03711ZM5.77524 6.09818C5.36655 6.09818 5.03407 5.7657 5.03407 5.35742C5.03407 4.94873 5.36655 4.61626 5.77524 4.61626C6.18393 4.61626 6.51599 4.94873 6.51599 5.35742C6.51599 5.7657 6.18393 6.09818 5.77524 6.09818Z" fill="#5683FF"/>
<path d="M11.6868 3.03711C10.4072 3.03711 9.36652 4.07779 9.36652 5.35742C9.36652 6.63664 10.4072 7.67773 11.6868 7.67773C12.966 7.67773 14.0067 6.63664 14.0067 5.35742C14.0071 4.07779 12.966 3.03711 11.6868 3.03711ZM11.6868 6.09818C11.2781 6.09818 10.9457 5.7657 10.9457 5.35742C10.9457 4.94873 11.2781 4.61626 11.6868 4.61626C12.0951 4.61626 12.4276 4.94873 12.4276 5.35742C12.4276 5.7657 12.0955 6.09818 11.6868 6.09818Z" fill="#5683FF"/>
<path d="M17.5984 3.03711C16.3188 3.03711 15.2781 4.07779 15.2781 5.35742C15.2781 6.63664 16.3188 7.67773 17.5984 7.67773C18.8777 7.67773 19.9188 6.63664 19.9188 5.35742C19.9188 4.07779 18.8777 3.03711 17.5984 3.03711ZM17.5984 6.09818C17.1898 6.09818 16.8573 5.7657 16.8573 5.35742C16.8573 4.94873 17.1898 4.61626 17.5984 4.61626C18.0067 4.61626 18.3392 4.94873 18.3392 5.35742C18.3392 5.7657 18.0071 6.09818 17.5984 6.09818Z" fill="#5683FF"/>
<path d="M19.129 14.4843H5.77525C5.33896 14.4843 4.98547 14.8377 4.98547 15.274C4.98547 15.7099 5.33896 16.0634 5.77525 16.0634H19.129C19.5653 16.0634 19.9188 15.7099 19.9188 15.274C19.9188 14.8377 19.5653 14.4843 19.129 14.4843Z" fill="#5683FF"/>
<path d="M19.129 18.1954H5.77525C5.33896 18.1954 4.98547 18.5489 4.98547 18.9848C4.98547 19.4211 5.33896 19.7746 5.77525 19.7746H19.129C19.5653 19.7746 19.9188 19.4211 19.9188 18.9848C19.9188 18.5489 19.5653 18.1954 19.129 18.1954Z" fill="#5683FF"/>
<path d="M19.129 21.9062H5.77525C5.33896 21.9062 4.98547 22.2597 4.98547 22.696C4.98547 23.1319 5.33896 23.4854 5.77525 23.4854H19.129C19.5653 23.4854 19.9188 23.1319 19.9188 22.696C19.9188 22.2597 19.5653 21.9062 19.129 21.9062Z" fill="#5683FF"/>
<path d="M19.129 25.6174H5.77525C5.33896 25.6174 4.98547 25.9709 4.98547 26.4072C4.98547 26.8431 5.33896 27.1966 5.77525 27.1966H19.129C19.5653 27.1966 19.9188 26.8431 19.9188 26.4072C19.9188 25.9709 19.5653 25.6174 19.129 25.6174Z" fill="#5683FF"/>
<path d="M19.129 29.3286H5.77525C5.33896 29.3286 4.98547 29.6821 4.98547 30.118C4.98547 30.5543 5.33896 30.9078 5.77525 30.9078H19.129C19.5653 30.9078 19.9188 30.5543 19.9188 30.118C19.9188 29.6821 19.5653 29.3286 19.129 29.3286Z" fill="#5683FF"/>
<path d="M19.129 33.0398H5.77525C5.33896 33.0398 4.98547 33.3933 4.98547 33.8292C4.98547 34.265 5.33896 34.6189 5.77525 34.6189H19.129C19.5653 34.6189 19.9188 34.265 19.9188 33.8292C19.9188 33.3933 19.5653 33.0398 19.129 33.0398Z" fill="#5683FF"/>
<path d="M19.129 36.7505H5.77525C5.33896 36.7505 4.98547 37.104 4.98547 37.5403C4.98547 37.9762 5.33896 38.3296 5.77525 38.3296H19.129C19.5653 38.3296 19.9188 37.9762 19.9188 37.5403C19.9188 37.104 19.5653 36.7505 19.129 36.7505Z" fill="#5683FF"/>
<path d="M19.129 40.4617H5.77525C5.33896 40.4617 4.98547 40.8152 4.98547 41.251C4.98547 41.6873 5.33896 42.0408 5.77525 42.0408H19.129C19.5653 42.0408 19.9188 41.6873 19.9188 41.251C19.9188 40.8152 19.5653 40.4617 19.129 40.4617Z" fill="#5683FF"/>
<path d="M19.129 44.1729H5.77525C5.33896 44.1729 4.98547 44.5263 4.98547 44.9622C4.98547 45.3985 5.33896 45.752 5.77525 45.752H19.129C19.5653 45.752 19.9188 45.3985 19.9188 44.9622C19.9188 44.5263 19.5653 44.1729 19.129 44.1729Z" fill="#5683FF"/>
<path d="M19.129 47.8835H5.77525C5.33896 47.8835 4.98547 48.237 4.98547 48.6733C4.98547 49.1092 5.33896 49.4627 5.77525 49.4627H19.129C19.5653 49.4627 19.9188 49.1092 19.9188 48.6733C19.9188 48.237 19.5653 47.8835 19.129 47.8835Z" fill="#5683FF"/>
<path d="M22.9329 13.9883V49.9593C22.9329 50.3952 23.2863 50.7487 23.7226 50.7487C24.1585 50.7487 24.512 50.3952 24.512 49.9593V13.9883C24.512 13.552 24.1585 13.1985 23.7226 13.1985C23.2863 13.1985 22.9329 13.552 22.9329 13.9883Z" fill="#5683FF"/>
<path d="M50.5195 0H3.48047C1.56143 0 0 1.56143 0 3.48047V50.5195C0 52.4386 1.56143 54 3.48047 54H27C27.4363 54 27.7898 53.6465 27.7898 53.2102C27.7898 52.7743 27.4363 52.4209 27 52.4209H3.48047C2.43196 52.4209 1.57915 51.568 1.57915 50.5195V10.7595H52.4209V50.5195C52.4209 51.568 51.568 52.4209 50.5195 52.4209H31.8726C31.4363 52.4209 31.0832 52.7743 31.0832 53.2102C31.0832 53.6465 31.4367 54 31.8726 54H50.5195C52.4386 54 54 52.4386 54 50.5195V3.48047C54 1.56143 52.4386 0 50.5195 0V0ZM52.4209 9.18031H1.57915V3.48047C1.57915 2.43196 2.43237 1.57915 3.48047 1.57915H50.5195C51.568 1.57915 52.4209 2.43196 52.4209 3.48047V9.18031Z" fill="#5683FF"/>
<path d="M47.187 3.03711H42.5818C42.1459 3.03711 41.7924 3.39059 41.7924 3.82648C41.7924 4.26277 42.1459 4.61626 42.5818 4.61626H47.187C47.6241 4.61626 47.9792 4.97139 47.9792 5.40851C47.9792 5.84563 47.6241 6.20117 47.187 6.20117H26.2123C25.7751 6.20117 25.4196 5.84563 25.4196 5.40851C25.4196 4.97139 25.7751 4.61626 26.2123 4.61626H37.6688C38.1051 4.61626 38.4582 4.26277 38.4582 3.82648C38.4582 3.39059 38.1047 3.03711 37.6688 3.03711H26.2123C24.9046 3.03711 23.8405 4.10086 23.8405 5.40851C23.8405 6.71657 24.9046 7.78032 26.2123 7.78032H47.187C48.4946 7.78032 49.5583 6.71616 49.5583 5.40851C49.5588 4.10086 48.4946 3.03711 47.187 3.03711Z" fill="#5683FF"/>
<path d="M49.6815 16.1174C49.6815 15.2168 48.949 14.4843 48.0484 14.4843H29.0838C28.1832 14.4843 27.4507 15.2168 27.4507 16.1174V23.2596C27.4507 24.1602 28.1832 24.8927 29.0838 24.8927H48.0484C48.949 24.8927 49.6815 24.1598 49.6815 23.2596V16.1174ZM32.0905 23.3136L36.3352 19.0705L39.648 22.8043C39.9376 23.1306 40.4366 23.1603 40.7628 22.8711C41.069 22.5992 41.1139 22.1427 40.879 21.818L42.4586 20.2389L45.1868 23.3136H32.0905ZM48.1024 23.2596C48.1024 23.2892 48.0781 23.3136 48.0484 23.3136H47.2982L43.5293 19.0664C43.2706 18.7747 42.8982 18.6004 42.508 18.5889C42.1179 18.5765 41.736 18.7285 41.4599 19.0046L39.8318 20.6319L37.406 17.898C37.1468 17.6063 36.7748 17.432 36.3842 17.4205C35.9974 17.4081 35.6122 17.5602 35.3362 17.8362L29.8563 23.3136H29.0838C29.0538 23.3136 29.0299 23.2892 29.0299 23.2596V16.1174C29.0299 16.0877 29.0538 16.0634 29.0838 16.0634H48.0484C48.0781 16.0634 48.1024 16.0877 48.1024 16.1174V23.2596Z" fill="#5683FF"/>
<path d="M28.2401 29.3669H32.0258C32.4621 29.3669 32.8152 29.0134 32.8152 28.5775C32.8152 28.1412 32.4617 27.7877 32.0258 27.7877H28.2401C27.8042 27.7877 27.4507 28.1412 27.4507 28.5775C27.4507 29.0134 27.8042 29.3669 28.2401 29.3669Z" fill="#5683FF"/>
<path d="M42.3243 28.5775C42.3243 28.1412 41.9708 27.7877 41.5349 27.7877H34.672C34.2357 27.7877 33.8822 28.1412 33.8822 28.5775C33.8822 29.0134 34.2357 29.3669 34.672 29.3669H41.5349C41.9708 29.3669 42.3243 29.0134 42.3243 28.5775Z" fill="#5683FF"/>
<path d="M48.8922 27.7877H44.7155C44.2792 27.7877 43.9257 28.1412 43.9257 28.5775C43.9257 29.0134 44.2792 29.3669 44.7155 29.3669H48.8922C49.3281 29.3669 49.6815 29.0134 49.6815 28.5775C49.6815 28.1412 49.3281 27.7877 48.8922 27.7877Z" fill="#5683FF"/>
<path d="M28.2401 32.3703H33.0368C33.4731 32.3703 33.8262 32.0168 33.8262 31.5805C33.8262 31.1446 33.4727 30.7911 33.0368 30.7911H28.2401C27.8042 30.7911 27.4507 31.1446 27.4507 31.5805C27.4507 32.0164 27.8042 32.3703 28.2401 32.3703Z" fill="#5683FF"/>
<path d="M36.1012 32.3703H44.2289C44.6652 32.3703 45.0183 32.0168 45.0183 31.5805C45.0183 31.1446 44.6648 30.7911 44.2289 30.7911H36.1012C35.6649 30.7911 35.3118 31.1446 35.3118 31.5805C35.3114 32.0164 35.6649 32.3703 36.1012 32.3703Z" fill="#5683FF"/>
<path d="M48.8922 30.7906H47.0267C46.5904 30.7906 46.2373 31.1441 46.2373 31.5804C46.2373 32.0163 46.5908 32.3698 47.0267 32.3698H48.8922C49.3281 32.3698 49.6815 32.0163 49.6815 31.5804C49.6815 31.1441 49.3281 30.7906 48.8922 30.7906Z" fill="#5683FF"/>
<path d="M49.6815 48.5305V36.2286C49.6815 35.328 48.949 34.5955 48.0484 34.5955H29.0838C28.1832 34.5955 27.4507 35.328 27.4507 36.2286V48.5305C27.4507 49.4307 28.1832 50.1636 29.0838 50.1636H48.0484C48.949 50.1636 49.6815 49.4307 49.6815 48.5305ZM29.0299 48.5305V36.2286C29.0299 36.1985 29.0542 36.1746 29.0838 36.1746H48.0484C48.0781 36.1746 48.1024 36.1985 48.1024 36.2286V48.5305C48.1024 48.5602 48.0781 48.5845 48.0484 48.5845H29.0838C29.0542 48.5845 29.0299 48.5602 29.0299 48.5305Z" fill="#5683FF"/>
<path d="M41.319 41.0566L37.3409 38.7598C36.8626 38.4837 36.2915 38.4837 35.8132 38.7598C35.3353 39.0358 35.0494 39.5302 35.0494 40.0822V44.6763C35.0494 45.2284 35.3353 45.7228 35.8132 45.9988C36.0526 46.1368 36.3146 46.206 36.5771 46.206C36.8391 46.206 37.1015 46.1372 37.3409 45.9988L41.319 43.702C41.7973 43.4259 42.0829 42.9315 42.0829 42.3795C42.0829 41.827 41.7973 41.3326 41.319 41.0566ZM36.629 44.5861V40.1721L40.4518 42.3795L36.629 44.5861Z" fill="#5683FF"/>
</g>
<defs>
<clipPath id="clip0">
<rect width="54" height="54" fill="white"/>
</clipPath>
</defs>
</svg>
