<svg width="54" height="54" viewBox="0 0 54 54" fill="none" xmlns="http://www.w3.org/2000/svg">
<path d="M29.5144 3.37329H2.53632C1.14075 3.37329 0.00506592 4.50898 0.00506592 5.90454V49.7829C0.00506592 50.2495 0.382222 50.6267 0.848816 50.6267H31.2019C31.6685 50.6267 32.0456 50.2495 32.0456 49.7829V5.90454C32.0456 4.50898 30.9108 3.37329 29.5144 3.37329ZM1.69257 8.43579H30.3581V48.9392H1.69257V8.43579ZM2.53632 5.06079H3.39694C2.93119 5.06079 2.55825 5.43795 2.55825 5.90454C2.55825 6.37114 2.93963 6.74829 3.40622 6.74829C3.87197 6.74829 4.24997 6.37114 4.24997 5.90454C4.24997 5.43795 3.87197 5.06079 3.40622 5.06079H5.9265C5.46075 5.06079 5.08781 5.43795 5.08781 5.90454C5.08781 6.37114 5.46919 6.74829 5.93578 6.74829C6.40153 6.74829 6.77953 6.37114 6.77953 5.90454C6.77953 5.43795 6.40153 5.06079 5.93578 5.06079H8.46113C7.99538 5.06079 7.62244 5.43795 7.62244 5.90454C7.62244 6.37114 8.00381 6.74829 8.47041 6.74829C8.93616 6.74829 9.31416 6.37114 9.31416 5.90454C9.31416 5.43795 8.93616 5.06079 8.47041 5.06079H29.5144C29.9801 5.06079 30.3581 5.43879 30.3581 5.90454V6.74829H8.46956H5.93494H3.40538H1.69257V5.90454C1.69257 5.43879 2.07057 5.06079 2.53632 5.06079Z" fill="#5683FF"/>
<path d="M4.21031 34.5904C4.21031 35.057 4.58746 35.4341 5.05406 35.4341H26.9831C27.4497 35.4341 27.8269 35.057 27.8269 34.5904V24.4688C27.8269 24.0022 27.4497 23.625 26.9831 23.625H5.05406C4.58746 23.625 4.21031 24.0022 4.21031 24.4688V27.4961L2.76834 28.9373C2.60971 29.0959 2.52112 29.3093 2.52112 29.5338C2.52112 29.7582 2.60971 29.9725 2.76834 30.1303L4.21031 31.5706V34.5904ZM5.65059 28.442C5.80921 28.2833 5.89781 28.0699 5.89781 27.8454V25.3125H26.1394V33.7466H5.89781V31.2213C5.89781 30.9968 5.80921 30.7825 5.65059 30.6248L4.55877 29.5338L5.65059 28.442Z" fill="#5683FF"/>
<path d="M8.42908 29.1077H23.6081C24.0747 29.1077 24.4519 28.7305 24.4519 28.2639C24.4519 27.7973 24.0747 27.4202 23.6081 27.4202H8.42908C7.96248 27.4202 7.58533 27.7973 7.58533 28.2639C7.58533 28.7305 7.96333 29.1077 8.42908 29.1077Z" fill="#5683FF"/>
<path d="M8.42908 31.6389H16.0178C16.4844 31.6389 16.8615 31.2618 16.8615 30.7952C16.8615 30.3286 16.4844 29.9514 16.0178 29.9514H8.42908C7.96248 29.9514 7.58533 30.3286 7.58533 30.7952C7.58533 31.2618 7.96333 31.6389 8.42908 31.6389Z" fill="#5683FF"/>
<path d="M29.268 15.439L27.826 13.9978V10.9705C27.826 10.5039 27.4489 10.1267 26.9823 10.1267H5.05408C4.58748 10.1267 4.21033 10.5039 4.21033 10.9705V21.0921C4.21033 21.5587 4.58748 21.9358 5.05408 21.9358H26.9815C27.448 21.9358 27.8252 21.5587 27.8252 21.0921V18.0723L29.2672 16.632C29.4258 16.4734 29.5144 16.2599 29.5144 16.0355C29.5144 15.8111 29.4258 15.5967 29.268 15.439ZM26.3849 17.1265C26.2263 17.2851 26.1377 17.4986 26.1377 17.723V20.2483H5.89783V11.8142H26.1377V14.3471C26.1377 14.5716 26.2263 14.7859 26.3849 14.9437L27.4767 16.0355L26.3849 17.1265Z" fill="#5683FF"/>
<path d="M23.6081 13.9219H8.42908C7.96248 13.9219 7.58533 14.299 7.58533 14.7656C7.58533 15.2322 7.96248 15.6094 8.42908 15.6094H23.6081C24.0747 15.6094 24.4519 15.2322 24.4519 14.7656C24.4519 14.299 24.0747 13.9219 23.6081 13.9219Z" fill="#5683FF"/>
<path d="M16.0178 16.4531H8.42908C7.96248 16.4531 7.58533 16.8303 7.58533 17.2969C7.58533 17.7635 7.96248 18.1406 8.42908 18.1406H16.0178C16.4844 18.1406 16.8615 17.7635 16.8615 17.2969C16.8615 16.8303 16.4844 16.4531 16.0178 16.4531Z" fill="#5683FF"/>
<path d="M5.01019 44.7169H26.9477C27.4118 44.7169 27.7889 44.3423 27.7914 43.8782L27.8277 37.9711C27.8294 37.7467 27.7408 37.5315 27.5822 37.3712C27.4236 37.2126 27.2093 37.1223 26.984 37.1223H5.04478C4.58072 37.1223 4.20356 37.4969 4.20103 37.961L4.16644 43.8681C4.16475 44.0934 4.25419 44.3085 4.41197 44.468C4.56975 44.6275 4.7849 44.7169 5.01019 44.7169ZM5.88347 38.8098H26.1352L26.109 43.0294H5.859L5.88347 38.8098Z" fill="#5683FF"/>
<path d="M14.321 45.5652H5.04562C4.57903 45.5652 4.20187 45.9423 4.20187 46.4089C4.20187 46.8755 4.57903 47.2527 5.04562 47.2527H14.3201C14.7867 47.2527 15.1639 46.8755 15.1639 46.4089C15.1639 45.9423 14.7867 45.5652 14.321 45.5652Z" fill="#5683FF"/>
<path d="M27.0042 45.5652H26.9949C26.5292 45.5652 26.1562 45.9423 26.1562 46.4089C26.1562 46.8755 26.5376 47.2527 27.0042 47.2527C27.47 47.2527 27.848 46.8755 27.848 46.4089C27.848 45.9423 27.47 45.5652 27.0042 45.5652Z" fill="#5683FF"/>
<path d="M24.473 45.5652H24.4637C23.9979 45.5652 23.625 45.9423 23.625 46.4089C23.625 46.8755 24.0064 47.2527 24.473 47.2527C24.9387 47.2527 25.3167 46.8755 25.3167 46.4089C25.3167 45.9423 24.9387 45.5652 24.473 45.5652Z" fill="#5683FF"/>
<path d="M44.7137 30.4164V27.6852C45.6958 27.3367 46.4046 26.4078 46.4046 25.3083C46.4046 23.9128 45.2689 22.7771 43.8733 22.7771C42.4777 22.7771 41.3421 23.9128 41.3421 25.3083C41.3421 26.4061 42.0483 27.3325 43.0262 27.6827V30.4164C37.8371 30.8476 33.7449 35.2005 33.7449 40.4984V49.7796C33.7449 50.2462 34.1221 50.6234 34.5887 50.6234H53.1495C53.6161 50.6234 53.9932 50.2462 53.9932 49.7796L53.9949 40.4984C53.9949 35.2005 49.9036 30.8476 44.7137 30.4164ZM43.8733 24.4638C44.3391 24.4638 44.7171 24.8418 44.7171 25.3075C44.7171 25.7733 44.3391 26.1513 43.8733 26.1513C43.4076 26.1513 43.0296 25.7733 43.0296 25.3075C43.0296 24.8418 43.4076 24.4638 43.8733 24.4638ZM39.6562 48.0904H41.3421V48.9359H39.6562V48.0904ZM44.7171 48.0904V48.9359H43.0296V48.0904H44.7171ZM48.0904 48.0904V48.9359H46.4046V48.0904H48.0904ZM52.3057 48.9359H49.7779V47.2467C49.7779 46.7801 49.4007 46.4029 48.9341 46.4029H38.8125C38.3459 46.4029 37.9687 46.7801 37.9687 47.2467V48.9359H35.4324V40.4984C35.4324 35.8459 39.2175 32.0609 43.8699 32.0609C48.5224 32.0609 52.3074 35.8459 52.3074 40.4984L52.3057 48.9359Z" fill="#5683FF"/>
<path d="M45.5608 40.4973C45.5608 41.8929 46.6965 43.0286 48.0921 43.0286C49.4876 43.0286 50.6233 41.8929 50.6233 40.4973C50.6233 39.1018 49.4876 37.9661 48.0921 37.9661C46.6965 37.9661 45.5608 39.1018 45.5608 40.4973ZM48.9358 40.4973C48.9358 40.9631 48.5578 41.3411 48.0921 41.3411C47.6263 41.3411 47.2483 40.9631 47.2483 40.4973C47.2483 40.0316 47.6263 39.6536 48.0921 39.6536C48.5578 39.6536 48.9358 40.0316 48.9358 40.4973Z" fill="#5683FF"/>
<path d="M39.6546 37.9661C38.259 37.9661 37.1233 39.1018 37.1233 40.4973C37.1233 41.8929 38.259 43.0286 39.6546 43.0286C41.0501 43.0286 42.1858 41.8929 42.1858 40.4973C42.1858 39.1018 41.0501 37.9661 39.6546 37.9661ZM39.6546 41.3411C39.1888 41.3411 38.8108 40.9631 38.8108 40.4973C38.8108 40.0316 39.1888 39.6536 39.6546 39.6536C40.1203 39.6536 40.4983 40.0316 40.4983 40.4973C40.4983 40.9631 40.1203 41.3411 39.6546 41.3411Z" fill="#5683FF"/>
<path d="M45.803 14.9378C45.9675 15.1024 46.1835 15.1851 46.3995 15.1851C46.6155 15.1851 46.8315 15.1024 46.9961 14.9378L48.6743 13.2588C48.6768 13.2563 48.6793 13.2563 48.6819 13.2537C48.8464 13.0892 48.9291 12.8723 48.9291 12.6563C48.9291 12.4395 48.8464 12.2227 48.6819 12.0581C48.6793 12.0556 48.6768 12.0556 48.6743 12.0531L46.9961 10.3732C46.6662 10.0433 46.1329 10.0433 45.803 10.3732C45.4731 10.7022 45.4731 11.2363 45.803 11.5662L46.8914 12.6555L45.803 13.7448C45.4739 14.0747 45.4739 14.6079 45.803 14.9378Z" fill="#5683FF"/>
<path d="M40.7421 14.9395C40.9067 15.1041 41.1227 15.1868 41.3387 15.1868C41.5547 15.1868 41.7707 15.1041 41.9352 14.9395C42.2651 14.6096 42.2651 14.0764 41.9352 13.7465L40.8451 12.6563L41.9352 11.5662C42.2651 11.2363 42.2651 10.7031 41.9352 10.3732C41.6053 10.0433 41.0721 10.0433 40.7421 10.3732L39.0622 12.0539C39.0597 12.0564 39.0572 12.0564 39.0547 12.059C38.8901 12.2235 38.8074 12.4403 38.8074 12.6563C38.8074 12.8732 38.8901 13.09 39.0547 13.2546C39.0572 13.2571 39.0597 13.2571 39.0622 13.2596L40.7421 14.9395Z" fill="#5683FF"/>
<path d="M42.822 16.8523C42.8904 16.87 42.9596 16.8776 43.0271 16.8776C43.4051 16.8776 43.7485 16.6211 43.8447 16.238L45.5313 9.48635C45.6444 9.0341 45.3693 8.57679 44.9162 8.46373C44.4631 8.34813 44.0058 8.62573 43.8936 9.07798L42.2069 15.8297C42.0947 16.2819 42.3698 16.7392 42.822 16.8523Z" fill="#5683FF"/>
<path d="M43.8699 21.0938C48.5224 21.0938 52.3074 17.3087 52.3074 12.6562C52.3074 8.00381 48.5224 4.21875 43.8699 4.21875C39.2175 4.21875 35.4324 8.00381 35.4324 12.6562C35.4324 17.3087 39.2175 21.0938 43.8699 21.0938ZM43.8699 5.90625C47.5917 5.90625 50.6199 8.93447 50.6199 12.6562C50.6199 16.378 47.5917 19.4062 43.8699 19.4062C40.1482 19.4062 37.1199 16.378 37.1199 12.6562C37.1199 8.93447 40.1482 5.90625 43.8699 5.90625Z" fill="#5683FF"/>
</svg>
