<svg width="54" height="54" viewBox="0 0 54 54" fill="none" xmlns="http://www.w3.org/2000/svg">
<path d="M6.75 12.6562H21.0938C21.5603 12.6562 21.9375 12.2791 21.9375 11.8125C21.9375 11.3459 21.5603 10.9688 21.0938 10.9688H6.75C6.28341 10.9688 5.90625 11.3459 5.90625 11.8125C5.90625 12.2791 6.28341 12.6562 6.75 12.6562Z" fill="#5683FF"/>
<path d="M18.5625 15.1875C18.5625 14.7209 18.1853 14.3438 17.7188 14.3438H8.4375C7.97091 14.3438 7.59375 14.7209 7.59375 15.1875C7.59375 15.6541 7.97091 16.0312 8.4375 16.0312H17.7188C18.1853 16.0312 18.5625 15.6541 18.5625 15.1875Z" fill="#5683FF"/>
<path d="M16.875 31.2288H8.4375C7.97091 31.2288 7.59375 31.6059 7.59375 32.0725C7.59375 32.5391 7.97091 32.9163 8.4375 32.9163H16.875C17.3416 32.9163 17.7188 32.5391 17.7188 32.0725C17.7188 31.6059 17.3416 31.2288 16.875 31.2288Z" fill="#5683FF"/>
<path d="M20.25 15.1875C20.25 15.6541 20.6272 16.0312 21.0937 16.0312H27.8488C28.3154 16.0312 28.6926 15.6541 28.6926 15.1875C28.6926 14.7209 28.3154 14.3438 27.8488 14.3438H21.0937C20.6272 14.3438 20.25 14.7209 20.25 15.1875Z" fill="#5683FF"/>
<path d="M11.8125 34.5938H6.75C6.28341 34.5938 5.90625 34.9709 5.90625 35.4375C5.90625 35.9041 6.28341 36.2812 6.75 36.2812H11.8125C12.2791 36.2812 12.6562 35.9041 12.6562 35.4375C12.6562 34.9709 12.2791 34.5938 11.8125 34.5938Z" fill="#5683FF"/>
<path d="M10.125 17.7188C9.65841 17.7188 9.28125 18.0959 9.28125 18.5625C9.28125 19.0291 9.65841 19.4062 10.125 19.4062H13.5C13.9666 19.4062 14.3438 19.0291 14.3438 18.5625C14.3438 18.0959 13.9666 17.7188 13.5 17.7188H10.125Z" fill="#5683FF"/>
<path d="M16.0312 18.5625C16.0312 19.0291 16.4084 19.4062 16.875 19.4062H36.2922C36.7588 19.4062 37.136 19.0291 37.136 18.5625C37.136 18.0959 36.7588 17.7188 36.2922 17.7188H16.875C16.4084 17.7188 16.0312 18.0959 16.0312 18.5625Z" fill="#5683FF"/>
<path d="M30.3809 21.0938H10.125C9.65841 21.0938 9.28125 21.4709 9.28125 21.9375C9.28125 22.4041 9.65841 22.7812 10.125 22.7812H30.3809C30.8475 22.7812 31.2247 22.4041 31.2247 21.9375C31.2247 21.4709 30.8475 21.0938 30.3809 21.0938Z" fill="#5683FF"/>
<path d="M20.25 25.3125C20.25 24.8459 19.8728 24.4688 19.4062 24.4688H10.125C9.65841 24.4688 9.28125 24.8459 9.28125 25.3125C9.28125 25.7791 9.65841 26.1562 10.125 26.1562H19.4062C19.8728 26.1562 20.25 25.7791 20.25 25.3125Z" fill="#5683FF"/>
<path d="M28.6926 27.8438H15.1875C14.7209 27.8438 14.3438 28.2209 14.3438 28.6875C14.3438 29.1541 14.7209 29.5312 15.1875 29.5312H28.6926C29.1592 29.5312 29.5363 29.1541 29.5363 28.6875C29.5363 28.2209 29.1592 27.8438 28.6926 27.8438Z" fill="#5683FF"/>
<path d="M10.125 27.8438C9.65841 27.8438 9.28125 28.2209 9.28125 28.6875C9.28125 29.1541 9.65841 29.5312 10.125 29.5312H11.8125C12.2791 29.5312 12.6562 29.1541 12.6562 28.6875C12.6562 28.2209 12.2791 27.8438 11.8125 27.8438H10.125Z" fill="#5683FF"/>
<path d="M44.7238 26.1993V8.4375V6.75C44.7238 5.35444 43.5881 4.21875 42.1926 4.21875H2.53125C1.13569 4.21875 0 5.35444 0 6.75V8.4375V38.8125C0 39.2791 0.377156 39.6562 0.84375 39.6562H33.75C33.75 43.2548 35.6417 46.4113 38.4784 48.2077C38.4809 48.2093 38.4826 48.211 38.4851 48.2127C40.0477 49.2007 41.8922 49.7812 43.875 49.7812C45.857 49.7812 47.7023 49.2007 49.2657 48.2127C49.2682 48.211 49.2708 48.2093 49.2733 48.2077C52.1083 46.4113 54 43.2548 54 39.6562V36.2812C54 30.985 49.9103 26.6321 44.7238 26.1993ZM2.53125 5.90625H3.39188C2.92613 5.90625 2.55234 6.28341 2.55234 6.75C2.55234 7.21659 2.93456 7.59375 3.40031 7.59375C3.86606 7.59375 4.24406 7.21659 4.24406 6.75C4.24406 6.28341 3.86606 5.90625 3.40031 5.90625H5.92312C5.45738 5.90625 5.08359 6.28341 5.08359 6.75C5.08359 7.21659 5.46581 7.59375 5.93156 7.59375C6.39731 7.59375 6.77531 7.21659 6.77531 6.75C6.77531 6.28341 6.39731 5.90625 5.93156 5.90625H8.45353C7.98863 5.90625 7.61484 6.28341 7.61484 6.75C7.61484 7.21659 7.99622 7.59375 8.46281 7.59375C8.92856 7.59375 9.30656 7.21659 9.30656 6.75C9.30656 6.28341 8.92856 5.90625 8.46281 5.90625H42.1926C42.6583 5.90625 43.0363 6.28425 43.0363 6.75V7.59375H8.46281H5.93156H3.40031H1.6875V6.75C1.6875 6.28425 2.0655 5.90625 2.53125 5.90625ZM1.6875 9.28125H2.53125V37.9688H1.6875V9.28125ZM4.21875 37.9688V9.28125H43.0363V26.1993C37.8456 26.6279 33.75 30.9817 33.75 36.2812V37.9688H4.21875ZM35.98 42.6035C36.5538 43.3198 37.2246 43.9509 37.9688 44.4876V45.6705C37.0972 44.8149 36.4163 43.7695 35.98 42.6035ZM48.0938 45.4739V46.9522C47.0812 47.5402 45.9397 47.9292 44.7188 48.0516V46.3641C45.9152 46.2645 47.0509 45.9548 48.0938 45.4739ZM43.0312 48.0507C41.8103 47.9284 40.6688 47.5402 39.6562 46.9513V45.4731C40.6991 45.954 41.8348 46.2645 43.0312 46.3632V48.0507ZM49.7812 45.6713V44.4884C50.5263 43.9509 51.1971 43.3198 51.77 42.6043C51.3337 43.7695 50.6528 44.8149 49.7812 45.6713ZM43.875 44.7188C39.2226 44.7188 35.4375 40.9337 35.4375 36.2812C35.4375 31.6364 39.2116 27.8573 43.8531 27.8446C43.8632 27.8454 43.8708 27.8505 43.8801 27.8505C43.8893 27.8505 43.8969 27.8454 43.9045 27.8454C48.5435 27.8615 52.3125 31.6389 52.3125 36.2812C52.3125 40.9337 48.5274 44.7188 43.875 44.7188Z" fill="#5683FF"/>
<path d="M43.875 32.0618C43.4084 32.0618 43.0312 32.4389 43.0312 32.9055V39.6572C43.0312 40.1238 43.4084 40.501 43.875 40.501C44.3416 40.501 44.7188 40.1238 44.7188 39.6572V32.9055C44.7188 32.4389 44.3416 32.0618 43.875 32.0618Z" fill="#5683FF"/>
</svg>
