<svg width="54" height="54" viewBox="0 0 54 54" fill="none" xmlns="http://www.w3.org/2000/svg">
<path d="M50.1823 0.54675C49.8617 0.199125 49.4128 0 48.937 0H5.06197C4.58947 0 4.13722 0.199125 3.8166 0.54675C3.49935 0.89775 3.34072 1.3635 3.38122 1.83262L7.37722 47.3951C7.43797 48.0971 7.92397 48.681 8.59897 48.8734L26.5405 53.9359C26.6923 53.9798 26.8442 54 26.9995 54C27.1547 54 27.31 53.9798 27.4585 53.9393L45.3932 48.8801C46.0682 48.6877 46.5508 48.1005 46.615 47.4019L50.6177 1.836C50.6617 1.3635 50.503 0.89775 50.1823 0.54675ZM43.3581 45.9439L26.9995 50.5575L10.6375 45.9405L6.90472 3.375H47.0942L43.3581 45.9439Z" fill="#5683FF"/>
<path d="M40.0439 10.6582C39.7266 10.3174 39.2811 10.125 38.812 10.125H15.187C14.2555 10.125 13.4995 10.881 13.4995 11.8125C13.4995 12.744 14.2555 13.5 15.187 13.5H37.0097L35.5146 35.883L26.9995 38.7214L18.562 35.91V33.75C18.562 32.8185 17.806 32.0625 16.8745 32.0625C15.943 32.0625 15.187 32.8185 15.187 33.75V37.125C15.187 37.8506 15.6527 38.4953 16.3412 38.7281L26.4662 42.1031C26.6384 42.1571 26.8206 42.1875 26.9995 42.1875C27.1817 42.1875 27.3572 42.1571 27.5327 42.0998L37.6577 38.7248C38.3091 38.5087 38.7614 37.9215 38.8086 37.2364L40.4961 11.9239C40.5265 11.4581 40.3611 10.9991 40.0439 10.6582Z" fill="#5683FF"/>
<path d="M37.9007 23.625H15.592C14.6605 23.625 13.9045 24.381 13.9045 25.3125C13.9045 26.244 14.6605 27 15.592 27H37.9007C38.8356 27 39.5882 26.244 39.5882 25.3125C39.5882 24.381 38.8322 23.625 37.9007 23.625Z" fill="#5683FF"/>
</svg>
