<svg width="54" height="54" viewBox="0 0 54 54" fill="none" xmlns="http://www.w3.org/2000/svg">
<path d="M5.06419 27.8489V30.3818H3.37753C2.91094 30.3818 2.53378 30.759 2.53378 31.2256V53.1546C2.53378 53.6212 2.91094 53.9984 3.37753 53.9984H50.6225C51.0891 53.9984 51.4662 53.6212 51.4662 53.1546V31.2256C51.4662 30.759 51.0891 30.3818 50.6225 30.3818H48.9358V27.8489C48.9358 27.3823 48.5587 27.0051 48.0921 27.0051H30.375C28.9896 27.0051 27.7695 27.6852 27 28.7196C26.2305 27.6843 25.0104 27.0051 23.625 27.0051H5.90794C5.44135 27.0051 5.06419 27.3823 5.06419 27.8489ZM4.22128 32.0693H5.06419V49.7796C5.06419 50.2462 5.44135 50.6234 5.90794 50.6234H23.625C24.7236 50.6234 25.6508 51.3313 26.0002 52.3109H4.22128V32.0693ZM49.7787 32.0693V52.3109H27.9998C28.3492 51.3313 29.2773 50.6234 30.375 50.6234H48.0921C48.5587 50.6234 48.9358 50.2462 48.9358 49.7796V32.0693H49.7787ZM30.375 28.6926H47.2483V48.9359H30.375C29.4216 48.9359 28.5508 49.2658 27.8438 49.8007V31.2256C27.8438 29.8292 28.9794 28.6926 30.375 28.6926ZM26.1562 31.2256V49.8016C25.4492 49.2658 24.5784 48.9367 23.625 48.9367H6.75169V28.6926H23.625C25.0206 28.6926 26.1562 29.8292 26.1562 31.2256Z" fill="#5683FF"/>
<path d="M10.1267 32.9114H17.7188C18.1854 32.9114 18.5625 32.5342 18.5625 32.0676C18.5625 31.601 18.1854 31.2239 17.7188 31.2239H10.1267C9.66012 31.2239 9.28296 31.601 9.28296 32.0676C9.28296 32.5342 9.66012 32.9114 10.1267 32.9114Z" fill="#5683FF"/>
<path d="M10.1267 39.6648H16.033C16.4996 39.6648 16.8767 39.2876 16.8767 38.821C16.8767 38.3545 16.4996 37.9773 16.033 37.9773H10.1267C9.66012 37.9773 9.28296 38.3545 9.28296 38.821C9.28296 39.2876 9.66012 39.6648 10.1267 39.6648Z" fill="#5683FF"/>
<path d="M22.7812 37.9773H19.4079C18.9413 37.9773 18.5642 38.3545 18.5642 38.821C18.5642 39.2876 18.9413 39.6648 19.4079 39.6648H22.7812C23.2478 39.6648 23.625 39.2876 23.625 38.821C23.625 38.3545 23.2478 37.9773 22.7812 37.9773Z" fill="#5683FF"/>
<path d="M22.7813 34.6006H13.5017C13.0351 34.6006 12.658 34.9777 12.658 35.4443C12.658 35.9109 13.0351 36.2881 13.5017 36.2881H22.7813C23.2479 36.2881 23.625 35.9109 23.625 35.4443C23.625 34.9777 23.2479 34.6006 22.7813 34.6006Z" fill="#5683FF"/>
<path d="M10.1267 36.2881H10.9705C11.4371 36.2881 11.8142 35.9109 11.8142 35.4443C11.8142 34.9777 11.4371 34.6006 10.9705 34.6006H10.1267C9.66012 34.6006 9.28296 34.9777 9.28296 35.4443C9.28296 35.9109 9.66012 36.2881 10.1267 36.2881Z" fill="#5683FF"/>
<path d="M22.7812 31.2239H21.0938C20.6272 31.2239 20.25 31.601 20.25 32.0676C20.25 32.5342 20.6272 32.9114 21.0938 32.9114H22.7812C23.2478 32.9114 23.625 32.5342 23.625 32.0676C23.625 31.601 23.2478 31.2239 22.7812 31.2239Z" fill="#5683FF"/>
<path d="M10.1267 43.0415H18.5625C19.0291 43.0415 19.4063 42.6643 19.4063 42.1978C19.4063 41.7312 19.0291 41.354 18.5625 41.354H10.1267C9.66012 41.354 9.28296 41.7312 9.28296 42.1978C9.28296 42.6643 9.66012 43.0415 10.1267 43.0415Z" fill="#5683FF"/>
<path d="M22.7812 41.354H21.9375C21.4709 41.354 21.0938 41.7312 21.0938 42.1978C21.0938 42.6643 21.4709 43.0415 21.9375 43.0415H22.7812C23.2478 43.0415 23.625 42.6643 23.625 42.1978C23.625 41.7312 23.2478 41.354 22.7812 41.354Z" fill="#5683FF"/>
<path d="M13.5017 44.7305H10.1267C9.66012 44.7305 9.28296 45.1076 9.28296 45.5742C9.28296 46.0408 9.66012 46.418 10.1267 46.418H13.5017C13.9683 46.418 14.3455 46.0408 14.3455 45.5742C14.3455 45.1076 13.9683 44.7305 13.5017 44.7305Z" fill="#5683FF"/>
<path d="M22.7812 44.7305H16.8767C16.4101 44.7305 16.0329 45.1076 16.0329 45.5742C16.0329 46.0408 16.4101 46.418 16.8767 46.418H22.7812C23.2478 46.418 23.625 46.0408 23.625 45.5742C23.625 45.1076 23.2478 44.7305 22.7812 44.7305Z" fill="#5683FF"/>
<path d="M36.2956 32.9045H43.8877C44.3543 32.9045 44.7314 32.5274 44.7314 32.0608C44.7314 31.5942 44.3543 31.217 43.8877 31.217H36.2956C35.829 31.217 35.4518 31.5942 35.4518 32.0608C35.4518 32.5274 35.829 32.9045 36.2956 32.9045Z" fill="#5683FF"/>
<path d="M43.8877 37.9705H37.9814C37.5148 37.9705 37.1377 38.3476 37.1377 38.8142C37.1377 39.2808 37.5148 39.658 37.9814 39.658H43.8877C44.3543 39.658 44.7314 39.2808 44.7314 38.8142C44.7314 38.3476 44.3534 37.9705 43.8877 37.9705Z" fill="#5683FF"/>
<path d="M31.2331 39.658H34.6064C35.073 39.658 35.4502 39.2808 35.4502 38.8142C35.4502 38.3476 35.073 37.9705 34.6064 37.9705H31.2331C30.7665 37.9705 30.3893 38.3476 30.3893 38.8142C30.3893 39.2808 30.7665 39.658 31.2331 39.658Z" fill="#5683FF"/>
<path d="M31.2331 36.2812H40.5127C40.9793 36.2812 41.3564 35.9041 41.3564 35.4375C41.3564 34.9709 40.9793 34.5938 40.5127 34.5938H31.2331C30.7665 34.5938 30.3893 34.9709 30.3893 35.4375C30.3893 35.9041 30.7665 36.2812 31.2331 36.2812Z" fill="#5683FF"/>
<path d="M43.8877 34.5938H43.0439C42.5773 34.5938 42.2002 34.9709 42.2002 35.4375C42.2002 35.9041 42.5773 36.2812 43.0439 36.2812H43.8877C44.3543 36.2812 44.7314 35.9041 44.7314 35.4375C44.7314 34.9709 44.3534 34.5938 43.8877 34.5938Z" fill="#5683FF"/>
<path d="M31.2331 32.9045H32.9206C33.3872 32.9045 33.7643 32.5274 33.7643 32.0608C33.7643 31.5942 33.3872 31.217 32.9206 31.217H31.2331C30.7665 31.217 30.3893 31.5942 30.3893 32.0608C30.3893 32.5274 30.7665 32.9045 31.2331 32.9045Z" fill="#5683FF"/>
<path d="M43.8877 41.3472H35.4518C34.9852 41.3472 34.6081 41.7243 34.6081 42.1909C34.6081 42.6575 34.9852 43.0347 35.4518 43.0347H43.8877C44.3543 43.0347 44.7314 42.6575 44.7314 42.1909C44.7314 41.7243 44.3534 41.3472 43.8877 41.3472Z" fill="#5683FF"/>
<path d="M31.2331 43.0347H32.0768C32.5434 43.0347 32.9206 42.6575 32.9206 42.1909C32.9206 41.7243 32.5434 41.3472 32.0768 41.3472H31.2331C30.7665 41.3472 30.3893 41.7243 30.3893 42.1909C30.3893 42.6575 30.7665 43.0347 31.2331 43.0347Z" fill="#5683FF"/>
<path d="M43.8877 44.7239H40.5127C40.0461 44.7239 39.6689 45.101 39.6689 45.5676C39.6689 46.0342 40.0461 46.4114 40.5127 46.4114H43.8877C44.3543 46.4114 44.7314 46.0342 44.7314 45.5676C44.7314 45.101 44.3534 44.7239 43.8877 44.7239Z" fill="#5683FF"/>
<path d="M31.2331 46.4114H37.1377C37.6043 46.4114 37.9814 46.0342 37.9814 45.5676C37.9814 45.101 37.6043 44.7239 37.1377 44.7239H31.2331C30.7665 44.7239 30.3893 45.101 30.3893 45.5676C30.3893 46.0342 30.7665 46.4114 31.2331 46.4114Z" fill="#5683FF"/>
<path d="M26.4035 26.7528C26.568 26.9173 26.784 27 27 27C27.216 27 27.432 26.9173 27.5965 26.7528L29.2503 25.0991C35.2966 24.0157 39.6562 18.8266 39.6562 12.658C39.6562 5.6793 33.9787 0.00170898 27 0.00170898C20.0213 0.00170898 14.3438 5.6793 14.3438 12.658C14.3438 18.8275 18.7034 24.0157 24.7497 25.0991L26.4035 26.7528ZM16.0312 12.658C16.0312 6.60996 20.952 1.68921 27 1.68921C33.048 1.68921 37.9688 6.60996 37.9688 12.658C37.9688 18.0841 34.0765 22.6345 28.7128 23.4782C28.5365 23.5061 28.3736 23.5896 28.2471 23.7153L27 24.9632L25.7521 23.7153C25.6264 23.5896 25.4627 23.5061 25.2863 23.4782C19.9235 22.6345 16.0312 18.0841 16.0312 12.658Z" fill="#5683FF"/>
<path d="M23.3676 9.52526C23.0377 9.19536 22.5045 9.19536 22.1746 9.52526L19.6433 12.0565C19.3134 12.3864 19.3134 12.9197 19.6433 13.2496L22.1746 15.7808C22.3391 15.9453 22.5551 16.028 22.7711 16.028C22.9871 16.028 23.2031 15.9453 23.3676 15.7808C23.6976 15.4509 23.6976 14.9177 23.3676 14.5878L21.4329 12.653L23.3676 10.7183C23.6976 10.3893 23.6976 9.85517 23.3676 9.52526Z" fill="#5683FF"/>
<path d="M30.618 15.7808C30.7825 15.9453 30.9985 16.028 31.2145 16.028C31.4305 16.028 31.6465 15.9453 31.8111 15.7808L34.3423 13.2496C34.6722 12.9197 34.6722 12.3864 34.3423 12.0565L31.8111 9.52526C31.4812 9.19536 30.9479 9.19536 30.618 9.52526C30.2881 9.85517 30.2881 10.3884 30.618 10.7183L32.5527 12.653L30.618 14.5878C30.2881 14.9177 30.2881 15.4518 30.618 15.7808Z" fill="#5683FF"/>
<path d="M26.0879 17.1864L29.4638 8.74553C29.6367 8.31269 29.4258 7.82163 28.9929 7.64866C28.5626 7.47485 28.0682 7.68494 27.8961 8.11947L24.5202 16.5603C24.3473 16.9932 24.5582 17.4842 24.991 17.6572C25.0931 17.6986 25.1994 17.7171 25.3041 17.7171C25.639 17.7171 25.9563 17.5172 26.0879 17.1864Z" fill="#5683FF"/>
</svg>
