<svg width="54" height="54" viewBox="0 0 54 54" fill="none" xmlns="http://www.w3.org/2000/svg">
<path d="M1.2673 54H35.0139C35.4805 54 35.8577 53.6228 35.8577 53.1562V51.4671H37.5469C38.0135 51.4671 38.3906 51.0899 38.3906 50.6233V5.90625C38.3906 5.79403 38.3678 5.6835 38.3257 5.58141C38.2826 5.47847 38.2202 5.3865 38.1426 5.30888L33.0818 0.247219C33.0041 0.169594 32.9122 0.107156 32.8092 0.0649687C32.708 0.0227812 32.5974 0 32.4844 0H3.80024C3.33365 0 2.95649 0.378 2.95649 0.84375V2.53294H1.2673C0.80071 2.53294 0.423553 2.91094 0.423553 3.37669V53.1562C0.423553 53.6228 0.80071 54 1.2673 54ZM33.3281 2.88056L35.5101 5.0625H33.3281V2.88056ZM4.64399 1.6875H31.6406V5.90625C31.6406 6.372 32.0178 6.75 32.4844 6.75H36.7031V49.7796H4.64399V1.6875ZM2.11105 4.22044H2.95649V50.6233C2.95649 51.0899 3.33365 51.4671 3.80024 51.4671H34.1702V52.3125H2.11105V4.22044Z" fill="#5683FF"/>
<path d="M15.6111 29.5346C15.6111 29.068 15.2339 28.6909 14.7673 28.6909C13.3718 28.6909 12.2361 27.5543 12.2361 26.1579V22.7812C12.2361 22.1307 11.9821 21.5426 11.578 21.0938C11.9821 20.6449 12.2361 20.0568 12.2361 19.4062V16.0312C12.2361 14.6357 13.3718 13.5 14.7673 13.5C15.2339 13.5 15.6111 13.122 15.6111 12.6562C15.6111 12.1905 15.2339 11.8125 14.7673 11.8125C12.4411 11.8125 10.5486 13.705 10.5486 16.0312V19.4062C10.5486 19.8712 10.1706 20.25 9.70483 20.25C9.23824 20.25 8.86108 20.628 8.86108 21.0938C8.86108 21.5595 9.23824 21.9375 9.70483 21.9375C10.1706 21.9375 10.5486 22.3163 10.5486 22.7812V26.1579C10.5486 28.485 12.4411 30.3784 14.7673 30.3784C15.2339 30.3784 15.6111 30.0012 15.6111 29.5346Z" fill="#5683FF"/>
<path d="M31.6423 20.25C31.1766 20.25 30.7986 19.8712 30.7986 19.4062V16.0312C30.7986 13.705 28.906 11.8125 26.5798 11.8125C26.1132 11.8125 25.7361 12.1905 25.7361 12.6562C25.7361 13.122 26.1132 13.5 26.5798 13.5C27.9754 13.5 29.1111 14.6357 29.1111 16.0312V19.4062C29.1111 20.0568 29.365 20.6449 29.7692 21.0938C29.365 21.5426 29.1111 22.1307 29.1111 22.7812V26.1579C29.1111 27.5543 27.9754 28.6909 26.5798 28.6909C26.1132 28.6909 25.7361 29.068 25.7361 29.5346C25.7361 30.0012 26.1132 30.3784 26.5798 30.3784C28.906 30.3784 30.7986 28.485 30.7986 26.1579V22.7812C30.7986 22.3163 31.1766 21.9375 31.6423 21.9375C32.1089 21.9375 32.4861 21.5595 32.4861 21.0938C32.4861 20.628 32.1089 20.25 31.6423 20.25Z" fill="#5683FF"/>
<path d="M17.3205 20.25H17.3112C16.8455 20.25 16.4725 20.628 16.4725 21.0938C16.4725 21.5595 16.8539 21.9375 17.3205 21.9375C17.7863 21.9375 18.1643 21.5595 18.1643 21.0938C18.1643 20.628 17.7863 20.25 17.3205 20.25Z" fill="#5683FF"/>
<path d="M20.6989 21.9375C21.1646 21.9375 21.5426 21.5595 21.5426 21.0938C21.5426 20.628 21.1646 20.25 20.6989 20.25H20.6896C20.2238 20.25 19.8509 20.628 19.8509 21.0938C19.8509 21.5595 20.2323 21.9375 20.6989 21.9375Z" fill="#5683FF"/>
<path d="M24.9193 21.0938C24.9193 20.628 24.5413 20.25 24.0756 20.25H24.0663C23.6005 20.25 23.2276 20.628 23.2276 21.0938C23.2276 21.5595 23.609 21.9375 24.0756 21.9375C24.5413 21.9375 24.9193 21.5595 24.9193 21.0938Z" fill="#5683FF"/>
<path d="M16.4548 39.6597C15.9882 39.6597 15.6111 40.0368 15.6111 40.5034C15.6111 40.9692 15.2331 41.3472 14.7673 41.3472C14.3016 41.3472 13.9236 40.9692 13.9236 40.5034V37.1284C13.9236 36.6627 14.3016 36.2847 14.7673 36.2847C15.2322 36.2847 15.6094 36.6627 15.6094 37.1284C15.6094 37.595 15.9866 37.9722 16.4532 37.9722C16.9197 37.9722 17.2969 37.595 17.2969 37.1284C17.2969 35.7329 16.1621 34.5972 14.7673 34.5972C13.3718 34.5972 12.2361 35.7329 12.2361 37.1284V40.5034C12.2361 41.899 13.3718 43.0347 14.7673 43.0347C16.1629 43.0347 17.2986 41.899 17.2986 40.5034C17.2986 40.0368 16.9214 39.6597 16.4548 39.6597Z" fill="#5683FF"/>
<path d="M26.5798 36.2847C27.0447 36.2847 27.4219 36.6627 27.4219 37.1284C27.4219 37.595 27.799 37.9722 28.2656 37.9722C28.7322 37.9722 29.1094 37.595 29.1094 37.1284C29.1094 35.7329 27.9745 34.5972 26.5798 34.5972C25.1842 34.5972 24.0486 35.7329 24.0486 37.1284C24.0486 38.4928 25.2922 39.1154 26.2001 39.5711C26.9139 39.928 27.4185 40.2047 27.4185 40.5034C27.4185 40.9692 27.0405 41.3472 26.5747 41.3472C26.109 41.3472 25.731 40.9692 25.731 40.5034C25.731 40.0368 25.3538 39.6597 24.8872 39.6597C24.4206 39.6597 24.0435 40.0368 24.0435 40.5034C24.0435 41.899 25.1792 43.0347 26.5747 43.0347C27.9703 43.0347 29.106 41.899 29.106 40.5034C29.106 39.1391 27.8623 38.5164 26.9544 38.0608C26.2406 37.7039 25.7361 37.4271 25.7361 37.1284C25.7361 36.6627 26.1141 36.2847 26.5798 36.2847Z" fill="#5683FF"/>
<path d="M20.6677 36.2847C21.1326 36.2847 21.5097 36.6627 21.5097 37.1284C21.5097 37.595 21.8869 37.9722 22.3535 37.9722C22.8201 37.9722 23.1972 37.595 23.1972 37.1284C23.1972 35.7329 22.0624 34.5972 20.6677 34.5972C19.2721 34.5972 18.1364 35.7329 18.1364 37.1284C18.1364 38.4928 19.3801 39.1154 20.288 39.5711C21.0018 39.928 21.5063 40.2047 21.5063 40.5034C21.5063 40.9692 21.1283 41.3472 20.6626 41.3472C20.1968 41.3472 19.8188 40.9692 19.8188 40.5034C19.8188 40.0368 19.4417 39.6597 18.9751 39.6597C18.5085 39.6597 18.1313 40.0368 18.1313 40.5034C18.1313 41.899 19.267 43.0347 20.6626 43.0347C22.0582 43.0347 23.1938 41.899 23.1938 40.5034C23.1938 39.1391 21.9502 38.5164 21.0423 38.0608C20.3285 37.7039 19.8239 37.4271 19.8239 37.1284C19.8239 36.6627 20.2019 36.2847 20.6677 36.2847Z" fill="#5683FF"/>
<path d="M40.9218 39.4444V43.0506C40.9218 43.5172 41.299 43.8943 41.7656 43.8943C42.2322 43.8943 42.6093 43.5172 42.6093 43.0506V39.6773H43.4531V40.516C43.4531 40.9826 43.8303 41.3597 44.2968 41.3597C44.7634 41.3597 45.1406 40.9826 45.1406 40.516V39.6773H45.9843V46.429C45.9843 46.8956 46.3615 47.2727 46.8281 47.2727C47.2947 47.2727 47.6718 46.8956 47.6718 46.429V39.6773H48.5156V41.3614C48.5156 41.828 48.8928 42.2052 49.3593 42.2052C49.8259 42.2052 50.2031 41.828 50.2031 41.3614V39.6773H51.0468V43.0506C51.0468 43.5172 51.424 43.8943 51.8906 43.8943C52.3572 43.8943 52.7343 43.5172 52.7343 43.0506V39.4419C53.2355 39.1482 53.5764 38.6116 53.5764 37.9898V27.8606C53.5764 26.0051 52.0712 24.4965 50.2183 24.4872C50.2124 24.4872 50.2073 24.4839 50.2014 24.4839H49.3577V9.29637C49.3577 9.29637 49.3577 9.29637 49.3577 9.29552C49.3577 9.29468 49.3577 9.29552 49.3577 9.29468C49.3577 7.89912 48.222 6.76343 46.8264 6.76343C45.4308 6.76343 44.2952 7.89912 44.2952 9.29468V9.29552C44.2952 9.29552 44.2952 9.29552 44.2952 9.29637V24.4839H43.4514C41.5893 24.4839 40.0747 25.9984 40.0747 27.8606V37.9906C40.0747 38.6133 40.4181 39.1516 40.9218 39.4444ZM41.7622 37.9898V37.146H51.8889V37.9898H41.7622ZM51.8889 35.4585H41.7622V30.3783H51.8889V35.4585ZM45.9827 9.29552C45.9827 9.29468 45.9827 9.29468 45.9827 9.29552C45.9827 8.82977 46.3607 8.45093 46.8264 8.45093C47.2922 8.45093 47.6702 8.82977 47.6702 9.29468V9.29552C47.6702 9.29552 47.6702 9.29552 47.6702 9.29637V24.4839H45.9827V9.29552ZM43.4514 26.1714H50.193C50.1963 26.1714 50.198 26.1731 50.2014 26.1731C51.1321 26.1731 51.8889 26.9299 51.8889 27.8606V28.6908H41.7622V27.8606C41.7622 26.9291 42.5208 26.1714 43.4514 26.1714Z" fill="#5683FF"/>
</svg>
